<?xml version="1.0" standalone="no"?>
<!DOCTYPE svg PUBLIC "-//W3C//DTD SVG 1.1//EN" "http://www.w3.org/Graphics/SVG/1.1/DTD/svg11.dtd" >
<svg>
<metadata>
Created by FontForge 20110222 at Tue Mar  5 16:09:02 2013
 By Ubuntu
\251 M KLEIN  7.03
</metadata>
<defs>
<font id="SlabTallX" horiz-adv-x="492" >
  <font-face 
    font-family="SlabTallX"
    font-weight="500"
    font-stretch="normal"
    units-per-em="1000"
    panose-1="2 0 6 3 5 0 0 2 0 4"
    ascent="800"
    descent="-200"
    x-height="497"
    cap-height="697"
    bbox="-93 -219 980 931"
    underline-thickness="56"
    underline-position="-62"
    unicode-range="U+0005-E060"
  />
<missing-glyph horiz-adv-x="0" 
 />
    <glyph glyph-name=".notdef" horiz-adv-x="0" 
 />
    <glyph glyph-name="breve" horiz-adv-x="268" 
d="M137 573q46 0 81 30.5t47 91.5h-40q-11 -40 -34.5 -58t-53.5 -18t-53.5 18t-34.5 58h-40q12 -61 47 -91.5t81 -30.5z" />
    <glyph glyph-name="dotaccent" horiz-adv-x="306" 
d="M104 674v-76h76v76h-76z" />
    <glyph glyph-name="ring" horiz-adv-x="280" 
d="M143 733q-36 0 -61.5 -25.5t-25.5 -61.5t25.5 -61.5t61.5 -25.5t61.5 25.5t25.5 61.5t-25.5 61.5t-61.5 25.5zM143 701q23 0 39 -16t16 -39t-16 -39t-39 -16t-39 16t-16 39t16 39t39 16z" />
    <glyph glyph-name="hungarumlaut" unicode="&#xa;" horiz-adv-x="256" 
d="M71 567h40l109 147l-63 -1zM174 567h41l109 147l-64 -1z" />
    <glyph glyph-name="ogonek" horiz-adv-x="283" 
d="M129 6q-19 -13 -32.5 -37.5t-13.5 -55.5q0 -45 26.5 -69.5t68.5 -24.5q17 0 30 3.5t24 10.5v45q-14 -8 -24 -9q-5 -1 -10.5 -1.5t-11.5 -0.5q-20 0 -36 16t-16 47q0 24 9 43.5t24 32.5h-38z" />
    <glyph glyph-name="caron" horiz-adv-x="263" 
d="M5 711l98 -142h62l98 142h-50l-79 -103l-79 103h-50z" />
    <glyph glyph-name="dotlessi" unicode="&#xd;" horiz-adv-x="273" 
d="M178 54v443h-149v-52h83v-391h-83v-54h229v54h-80z" />
    <glyph glyph-name="fraction" horiz-adv-x="228" 
d="M-93 0h41l429 704h-41z" />
    <glyph glyph-name="fi" horiz-adv-x="523" 
d="M157 54v391h93v52h-93v55q0 60 18 81.5t53 21.5q29 0 44.5 -17t21.5 -47l70 3q-2 22 -10 43t-24 37.5t-40.5 26t-58.5 9.5q-141 0 -141 -159v-54h-68v-52h68v-391h-82v-54h223v54h-74zM407 644q0 -22 4 -27t24 -5t24 5t4 28q0 22 -4 27t-24 5t-24 -5t-4 -28zM480 54v443
h-226v-52h160v-391h-76v-54h219v54h-77z" />
    <glyph glyph-name="fl" horiz-adv-x="523" 
d="M313 697q-27 13 -75 13q-75 0 -112 -40t-37 -125v-48h-68v-52h68v-391h-82v-54h223v54h-74v391h79v52h-79v50q0 26 3 45.5t12.5 33t26.5 20t44 6.5q35 0 60 -10.5t44 -28.5l22 37v-596h-77v-54h221v54h-77v643h-122z" />
    <glyph glyph-name="Lslash" horiz-adv-x="512" 
d="M304 514l-121 -84v211h106v56h-278v-56h101v-260l-106 -74v-54l106 74v-271h-98v-56h475v252h-68v-194h-238v318l121 84v54z" />
    <glyph glyph-name="lslash" horiz-adv-x="259" 
d="M2 321v-44l97 65v-288h-84v-54h232v54h-82v332l95 64v44l-95 -64v267h-151v-52h85v-259z" />
    <glyph glyph-name="Zcaron" horiz-adv-x="537" 
d="M440 56h-328l380 577v64h-445v-188h63v132h299l-377 -574v-67h470v196h-62v-140zM142 909l98 -142h62l98 142h-50l-79 -103l-79 103h-50z" />
    <glyph glyph-name="zcaron" horiz-adv-x="450" 
d="M63 497v-167h56v114h208l-280 -388v-56h357v177h-56v-123h-236l291 389v54h-340zM99 711l98 -142h62l98 142h-50l-79 -103l-79 103h-50z" />
    <glyph glyph-name="space" unicode=" " horiz-adv-x="333" 
 />
    <glyph glyph-name="exclam" unicode="!" horiz-adv-x="288" 
d="M123 94v-95h75v95h-75zM198 697h-77l5 -234l12 -289h46l10 287z" />
    <glyph glyph-name="quotedbl" unicode="&#x22;" horiz-adv-x="253" 
d="M240 703h-66l2 -107l11 -147h40l11 146zM96 703h-66l2 -107l11 -147h40l11 146z" />
    <glyph glyph-name="numbersign" unicode="#" horiz-adv-x="560" 
d="M48 282v-46h98l-40 -232h47l40 232h141l-40 -232h47l40 232h121v46h-113l27 154h99v46h-91l39 225h-47l-39 -225h-141l39 225h-47l-39 -225h-128v-46h120l-27 -154h-106zM201 282l27 154h141l-27 -154h-141z" />
    <glyph glyph-name="dollar" unicode="$" horiz-adv-x="485" 
d="M449 180q0 39 -8 70t-28.5 55.5t-55 43.5t-86.5 34q-33 9 -60.5 20.5t-48 28t-31.5 39t-11 52.5q0 54 31.5 86t83.5 32q66 0 99.5 -41t35.5 -110l58 -1v99h-35v-35q-4 73 -53 106q-32 22 -69 30v67h-46v-63q-77 -5 -123 -48q-51 -48 -51 -125q0 -78 41 -122.5t137 -70.5
q41 -11 70 -24t48 -30.5t27.5 -41t8.5 -55.5q0 -60 -35.5 -96t-93.5 -36q-61 0 -102.5 41.5t-47.5 117.5h-61v-101h36v39q9 -73 55 -112q36 -30 91 -37v-91h46v90q76 4 124 52q54 52 54 137z" />
    <glyph glyph-name="percent" unicode="%" horiz-adv-x="791" 
d="M594 704l-446 -710h47l445 710h-46zM201 709q-60 0 -91 -48t-31 -130q0 -85 30.5 -133t90.5 -48t90.5 47.5t30.5 132.5q0 87 -29.5 133t-90.5 46zM202 669q35 0 50 -36t15 -102t-16 -103t-50 -37q-35 0 -50.5 35.5t-15.5 101.5q0 64 17 102.5t50 38.5zM590 351
q-58 0 -90 -48t-32 -130q0 -85 30.5 -132.5t90.5 -47.5q61 0 91 47t30 132q0 87 -28.5 133t-91.5 46zM591 311q35 0 50 -36t15 -102t-16 -102.5t-50 -36.5q-35 0 -50.5 35t-15.5 101q0 64 17 102.5t50 38.5z" />
    <glyph glyph-name="ampersand" unicode="&#x26;" horiz-adv-x="661" 
d="M537 326h83v55h-180v-32h39q0 -45 -14 -103q-11 -44 -30 -77l-151 216q55 25 96 68q44 47 44 114q0 33 -11 59.5t-30.5 45t-45 28.5t-55.5 10q-34 0 -62.5 -10.5t-49.5 -30t-32.5 -47t-11.5 -60.5q0 -43 21 -83q11 -20 22.5 -38.5t22.5 -35.5q-55 -27 -93 -71
q-44 -53 -44 -141q0 -39 13.5 -76.5t39 -66.5t63 -46.5t85.5 -17.5q58 0 108 27q34 18 64 51q11 -16 22.5 -32t22.5 -32h148v56h-108l-43 61q28 42 42 86q17 50 25 123zM253 430l-4 6q-9 13 -18 29.5t-17 33.5t-13 34.5t-5 32.5q0 45 24.5 68.5t57.5 23.5q36 0 58.5 -24.5
t22.5 -69.5q0 -48 -36 -84q-28 -28 -70 -50zM227 356q28 -39 54.5 -78t52.5 -77l30 -44t31 -44q-27 -29 -50 -44q-40 -25 -83 -25q-28 0 -52.5 12t-42.5 33.5t-28.5 50.5t-10.5 62q0 56 30 97q22 30 69 57z" />
    <glyph glyph-name="quotesingle" unicode="'" horiz-adv-x="162" 
d="M123 703h-66l2 -107l11 -147h40l11 146z" />
    <glyph glyph-name="parenleft" unicode="(" horiz-adv-x="310" 
d="M142 255q0 151 35 261t98 168l-37 21q-78 -64 -121.5 -181.5t-43.5 -268.5t43.5 -268.5t121.5 -181.5l37 21q-63 58 -98 168t-35 261z" />
    <glyph glyph-name="parenright" unicode=")" horiz-adv-x="310" 
d="M169 255q0 -151 -37 -261t-101 -168l37 -21q40 32 71.5 78t53.5 103.5t33.5 125.5t11.5 143t-11.5 143t-33.5 125.5t-53.5 103.5t-71.5 78l-37 -21q64 -58 101 -168t37 -261z" />
    <glyph glyph-name="asterisk" unicode="*" horiz-adv-x="431" 
d="M240 482q18 -30 27 -48l16 -32t15.5 -28.5t24.5 -36.5l54 40q-17 22 -27.5 34t-21.5 23l-25 25t-38 41q35 7 57 11t33 5q19 1 74 17l-21 65q-26 -10 -41 -16.5t-29.5 -13t-32.5 -15.5t-50 -24q4 35 7 55t5.5 35.5t4 32t2.5 43.5h-68q1 -27 2.5 -43t4 -32t5.5 -36t7 -55
q-32 15 -50 24t-32.5 15.5t-29.5 13t-41 16.5l-21 -65q55 -16 74 -17q11 -1 33 -5t57 -11q-24 -27 -38 -41l-25 -25t-21.5 -23t-27.5 -34l54 -40q16 22 24.5 36.5t15.5 28.5l16 32t27 48z" />
    <glyph glyph-name="plus" unicode="+" horiz-adv-x="608" 
d="M278 367h-207v-52h207v-234h52v234h207v52h-207v231h-52v-231z" />
    <glyph glyph-name="comma" unicode="," horiz-adv-x="264" 
d="M130 97h-41l1 -43q1 -19 0.5 -30t-1.5 -14q0 -6 13 -10h24q0 -15 -5 -35t-11 -38t-13 -30t-11 -12l29 -18q7 0 16.5 14.5t17.5 34.5t14 41t6 34v107z" />
    <glyph glyph-name="hyphen" unicode="-" horiz-adv-x="309" 
d="M42 332v-59h228v59h-228z" />
    <glyph glyph-name="period" unicode="." horiz-adv-x="238" 
d="M39 97v-98h78v98h-78z" />
    <glyph glyph-name="slash" unicode="/" horiz-adv-x="317" 
d="M1 -8h58l239 712h-58z" />
    <glyph glyph-name="zero" unicode="0" horiz-adv-x="462" 
d="M419 349q0 85 -10.5 152t-33 113t-58 70.5t-84.5 24.5q-48 0 -83.5 -24.5t-58 -70.5t-33.5 -113t-11 -152q0 -84 11 -151t33.5 -113t57.5 -70.5t83 -24.5q49 0 84.5 24.5t58 70.5t33.5 113t11 151zM348 349q0 -71 -6.5 -127.5t-20 -96.5t-35.5 -61t-53 -21
q-32 0 -53.5 21t-35.5 61t-20 96.5t-6 127.5q0 72 6 128.5t19.5 96.5t35.5 61t53 21t53.5 -21t36 -61t20 -96.5t6.5 -128.5z" />
    <glyph glyph-name="one" unicode="1" horiz-adv-x="504" 
d="M347 54v643h-47q-36 -19 -74 -36t-77 -33v-68q35 14 67 32t61 38v-576h-102v-54h271v54h-99z" />
    <glyph glyph-name="two" unicode="2" horiz-adv-x="493" 
d="M51 0h375l3 198h-57v-141h-261q17 55 53 103.5t99 103.5q50 43 80.5 78t47.5 65.5t22.5 59t5.5 60.5q0 41 -12 74.5t-34.5 57.5t-54 37t-70.5 13q-90 0 -138 -57.5t-48 -157.5v-8h69v7q0 75 29 118t86 43q45 0 73.5 -36t28.5 -93q0 -27 -5 -49.5t-20.5 -47.5t-44 -56
t-74.5 -75q-37 -29 -63.5 -60t-44.5 -62t-28.5 -60.5t-16.5 -54.5v-60z" />
    <glyph glyph-name="three" unicode="3" horiz-adv-x="494" 
d="M133 516q1 66 29 102t76 36q51 0 80 -36t29 -93q0 -66 -37.5 -102.5t-103.5 -36.5l-4 1v-56l17 2q69 0 108 -37.5t39 -106.5q0 -30 -9.5 -56.5t-26.5 -45.5t-40 -30t-50 -11q-55 0 -87.5 43.5t-36.5 115.5h-70q3 -102 55 -158.5t143 -56.5q42 0 77.5 14t60.5 40t39 62.5
t14 81.5q0 73 -37.5 119t-104.5 54q63 18 93.5 60.5t30.5 102.5q0 42 -12.5 76t-35 58t-54 37.5t-70.5 13.5q-84 0 -132 -51t-50 -142h70z" />
    <glyph glyph-name="four" unicode="4" horiz-adv-x="498" 
d="M275 700l-239 -437l3 -68h249v-141h-93v-54h231v54h-76v141h106v52h-106v453h-75zM288 629v-382h-196z" />
    <glyph glyph-name="five" unicode="5" horiz-adv-x="491" 
d="M417 697h-330l-23 -384l63 -12q20 45 52 68t72 23q57 0 89 -47t32 -125q0 -79 -32.5 -127t-92.5 -48q-49 0 -79.5 38t-36.5 107h-70q2 -45 15.5 -82t37.5 -63.5t56.5 -40.5t73.5 -14q45 0 81.5 16.5t62 47t39 73.5t13.5 97q0 49 -12 90t-34.5 70t-54 45t-70.5 16
q-43 0 -79.5 -19t-60.5 -59l19 270h216l4 -87h49v147z" />
    <glyph glyph-name="six" unicode="6" horiz-adv-x="494" 
d="M444 221q0 50 -11.5 91t-33 70t-52 45t-67.5 16q-52 0 -102 -38q-24 -19 -50 -64q1 143 29 226q29 88 108 88q49 1 75.5 -35.5t28.5 -96.5h68q-3 91 -49 138.5t-121 47.5q-106 0 -155.5 -95t-49.5 -281q0 -92 13.5 -157t39 -106t62 -60.5t83.5 -19.5q42 0 76 17t58 47.5
t37 73t13 93.5zM133 213l8 -19l-1 22q-2 40 7 70.5t26 52.5q37 51 91 51t83.5 -46t29.5 -124q0 -79 -31.5 -128t-85.5 -49q-57 0 -95 62q-22 37 -32 108z" />
    <glyph glyph-name="seven" unicode="7" horiz-adv-x="495" 
d="M444 697h-385v-173h64v113h255q-42 -75 -74 -141.5t-56 -134.5t-40.5 -143t-28.5 -166l-40 1v-53h155v53l-42 -1q9 88 24 160.5t38 140t54.5 136.5t75.5 150v58z" />
    <glyph glyph-name="eight" unicode="8" horiz-adv-x="493" 
d="M250 338q58 0 93 -39t35 -105q0 -70 -35.5 -110.5t-96.5 -40.5q-60 0 -94 41t-34 111q0 67 34.5 105t97.5 38zM251 657q54 0 86.5 -36t32.5 -96q0 -63 -32.5 -100.5t-87.5 -37.5q-57 0 -90 37.5t-33 98.5q0 60 33.5 97t90.5 37zM184 363q-66 -13 -100.5 -58.5
t-34.5 -114.5q0 -45 14 -82t40.5 -63.5t63.5 -40.5t82 -14t81 14t62 40.5t40 63.5t14 83q0 67 -31.5 112.5t-103.5 60.5q66 16 95.5 57t29.5 104q0 85 -50.5 134.5t-137.5 49.5q-42 0 -76.5 -13.5t-59 -38t-38 -59t-13.5 -76.5q0 -58 30 -100.5t93 -58.5z" />
    <glyph glyph-name="nine" unicode="9" horiz-adv-x="494" 
d="M54 477q0 -50 11.5 -90.5t33 -70t51.5 -45.5t68 -16q52 0 102 38q13 10 25 26t25 39q-1 -73 -8 -129.5t-20 -97.5q-29 -88 -104 -88q-52 -1 -79 34.5t-30 98.5h-69q4 -91 50 -138.5t124 -47.5q105 0 153.5 96t48.5 280q0 91 -13.5 156.5t-38.5 106.5t-62 60.5t-83 19.5
q-42 0 -76 -16.5t-58.5 -47t-37.5 -73.5t-13 -95zM366 484l-9 20l1 -22q2 -39 -7 -69.5t-26 -53.5q-38 -50 -90 -50q-54 0 -83.5 46.5t-29.5 121.5q0 81 31.5 130t86.5 49q58 0 94 -63q22 -37 32 -109z" />
    <glyph glyph-name="colon" unicode=":" horiz-adv-x="288" 
d="M117 488v-98h78v98h-78zM117 97v-98h78v98h-78z" />
    <glyph glyph-name="semicolon" unicode=";" horiz-adv-x="288" 
d="M115 488v-98h78v98h-78zM142 97h-41l1 -43q1 -19 0.5 -30t-1.5 -14q0 -6 13 -10h24q0 -15 -5 -35t-11 -38t-13 -30t-11 -12l29 -18q7 0 16.5 14.5t17.5 34.5t14 41t6 34v107z" />
    <glyph glyph-name="less" unicode="&#x3c;" horiz-adv-x="608" 
d="M126 339l420 204v56l-484 -236v-48l484 -236v56z" />
    <glyph glyph-name="equal" unicode="=" horiz-adv-x="598" 
d="M64 408h466v52h-466v-52zM64 218h466v52h-466v-52z" />
    <glyph glyph-name="greater" unicode="&#x3e;" horiz-adv-x="608" 
d="M63 135v-56l484 236v48l-484 236v-56l420 -204z" />
    <glyph glyph-name="question" unicode="?" horiz-adv-x="421" 
d="M211 708q-43 0 -75.5 -14t-55 -39t-34 -59.5t-12.5 -76.5h70q1 61 28 97t75 36q51 0 78 -37t27 -92q0 -66 -35 -100t-92 -48q-12 -12 -18.5 -23t-10 -23t-4.5 -25.5t-1 -30.5l9 -99h55l6 73q2 29 5.5 45.5t21.5 34.5q76 34 105 83.5t29 116.5q0 34 -11.5 67t-33 58
t-53.5 40.5t-73 15.5zM149 94v-95h75v95h-75z" />
    <glyph glyph-name="at" unicode="@" horiz-adv-x="771" 
d="M398 544q-68 0 -126.5 -29t-101.5 -77t-68 -111t-25 -131q0 -71 24 -135t67.5 -113t104 -77.5t132.5 -28.5q48 0 92.5 13t81 33.5t64 45t40.5 48.5l-33 14q-14 -23 -39 -44t-58 -38t-72.5 -27t-81.5 -10q-54 0 -105.5 23.5t-91.5 65.5t-64.5 99.5t-24.5 125.5
q0 67 23 125t62 101t91 67.5t111 24.5q54 0 101 -20.5t81.5 -55t54 -80t19.5 -95.5q0 -48 -13.5 -90t-34 -74t-45 -50.5t-45.5 -18.5q-11 0 -21 10q-5 7 -5 22l1 15l65 303h-47l-14 -61q-6 20 -17.5 34.5t-25.5 24.5t-29 14.5t-28 4.5q-44 0 -79.5 -21.5t-61 -56t-39 -78
t-13.5 -88.5q0 -38 10.5 -67.5t28 -50t40 -31.5t45.5 -11q20 0 39 6.5t35 17t28.5 23t20.5 24.5q6 -42 18.5 -57t26.5 -15q34 0 69 21.5t62.5 58.5t45 86t17.5 103q0 58 -21.5 110t-60.5 91.5t-92.5 63t-117.5 23.5zM397 355q18 0 34 -8t28 -21t19 -30t7 -36q0 -32 -9 -72
t-26.5 -75.5t-42.5 -60t-57 -24.5q-17 0 -34 7t-30.5 21.5t-22 36.5t-8.5 51q0 39 10 76.5t29 67.5t45 48.5t58 18.5z" />
    <glyph glyph-name="A" unicode="A" horiz-adv-x="637" 
d="M423 303h-206l105 344zM650 56h-77l-195 583h43v58h-197v-58h43l-195 -583h-80v-56h246v56h-94l56 192h241l56 -192h-92v-56h245v56z" />
    <glyph glyph-name="B" unicode="B" horiz-adv-x="566" 
d="M187 333h124q139 0 139 -136q0 -66 -40 -104t-109 -38h-114v278zM315 0q100 0 154 51.5t54 147.5q0 69 -36.5 113.5t-102.5 54.5q52 10 83 52t31 100q0 87 -45 132.5t-130 45.5h-302v-56h95v-585h-95v-56h294zM187 387v255h118q121 0 121 -121q0 -64 -36 -99t-102 -35
h-101z" />
    <glyph glyph-name="C" unicode="C" horiz-adv-x="659" 
d="M137 350q0 69 14.5 124t42.5 93.5t68 59.5t91 21q37 0 69.5 -11t57.5 -34.5t41 -58.5t19 -83l62 1v235h-59v-108q-32 60 -85 89.5t-116 29.5q-64 0 -116 -26t-89 -73.5t-57 -113.5t-20 -147q0 -82 19.5 -148.5t56 -113t89.5 -71.5t120 -25q107 0 179 59t92 183l-69 13
q-17 -102 -68.5 -148t-126.5 -46q-51 0 -90.5 21.5t-67.5 60.5t-42.5 94t-14.5 123z" />
    <glyph glyph-name="D" unicode="D" horiz-adv-x="650" 
d="M534 343q0 -143 -60.5 -215.5t-185.5 -72.5h-103v587h107q121 0 181.5 -77t60.5 -222zM114 641v-585h-98v-56h273q85 0 145.5 25.5t99 72t56 110t17.5 140.5q0 81 -18.5 145.5t-57 109.5t-97.5 69.5t-140 24.5h-279v-56h99z" />
    <glyph glyph-name="E" unicode="E" horiz-adv-x="587" 
d="M538 0v195h-63v-140h-292v273h168v-54h46v163h-46v-54h-168v259h293v-134h62v189h-522v-56h96v-585h-95v-56h521z" />
    <glyph glyph-name="F" unicode="F" horiz-adv-x="522" 
d="M179 56v266h159v-55h46v161h-46l-1 -51h-158v265h269v-136h62v191h-498v-56h96v-585h-95v-56h272v56h-106z" />
    <glyph glyph-name="G" unicode="G" horiz-adv-x="709" 
d="M130 345q0 69 14.5 125t42 95.5t67 61.5t89.5 22q37 0 71 -12t61 -35.5t44.5 -59t20.5 -83.5l62 -1v239h-62v-106q-14 27 -35.5 48.5t-47.5 36.5t-56 23.5t-60 8.5q-66 0 -119 -26t-90.5 -73t-57.5 -113t-20 -147t20 -147.5t57 -113.5t90.5 -72.5t121.5 -25.5
q57 0 97 17.5t64 42t38 50t18.5 42t4.5 17.5v-160h61v281l44 -1v51h-259v-55h145q0 -51 -16.5 -92.5t-44 -71t-65 -45.5t-79.5 -16q-51 0 -91.5 21t-69.5 60t-44.5 93.5t-15.5 120.5z" />
    <glyph glyph-name="H" unicode="H" horiz-adv-x="669" 
d="M116 641v-585h-91v-56h256v56h-94v273h304v-273h-94v-56h257v56h-92v585h91v56h-257v-56h95v-255h-304v255h93v56h-256v-56h92z" />
    <glyph glyph-name="I" unicode="I" horiz-adv-x="287" 
d="M192 56v585h93v56h-257v-56h94v-585h-93v-56h257v56h-94z" />
    <glyph glyph-name="J" unicode="J" horiz-adv-x="350" 
d="M182 641v-564q0 -67 -18 -98.5t-64 -31.5q-30 0 -51 21.5t-27 56.5v10q-13 -9 -23.5 -15t-22.5 -10v-11q7 -57 33.5 -83.5t81.5 -26.5q85 0 123.5 45.5t38.5 139.5v567h88v56h-264v-56h105z" />
    <glyph glyph-name="K" unicode="K" horiz-adv-x="566" 
d="M563 0v56h-70l-254 316l245 269h62v56h-232v-56h83l-224 -273v0l225 -312h-89v-56h254zM266 0v56h-97v312v273h96v56h-264v-56h97v-585h-96v-56h264z" />
    <glyph glyph-name="L" unicode="L" horiz-adv-x="512" 
d="M186 641h106v56h-276v-56h99v-585h-98v-56h475v252h-68v-194h-238v583z" />
    <glyph glyph-name="M" unicode="M" horiz-adv-x="815" 
d="M585 697l-174 -590l-173 590h-213v-56h96l2 -585h-98v-56h244v56h-87v601l207 -657h36l209 656l2 -600h-91v-56h251v56h-93l-2 585h95v56h-211z" />
    <glyph glyph-name="N" unicode="N" horiz-adv-x="677" 
d="M512 82l-297 615h-196v-56h97l2 -585h-99v-56h258v56h-100v573l310 -634h86l-2 646h96v56h-254v-56h99v-559z" />
    <glyph glyph-name="O" unicode="O" horiz-adv-x="699" 
d="M573 349q0 -67 -15.5 -122.5t-44.5 -95.5t-70 -62t-92 -22t-92 22t-70 62t-44.5 95.5t-15.5 122.5t15.5 122.5t44.5 95.5t70 62t92 22t92 -22t70 -62t44.5 -95.5t15.5 -122.5zM649 349q0 80 -21.5 146t-60.5 113.5t-94 73.5t-122 26t-122 -26t-94 -73.5t-60.5 -113.5
t-21.5 -146t21.5 -146t60.5 -113.5t94 -73.5t122 -26t122 26t94 73.5t60.5 113.5t21.5 146z" />
    <glyph glyph-name="P" unicode="P" horiz-adv-x="533" 
d="M186 342v300h106q78 0 112 -36t34 -117q0 -147 -137 -147h-115zM186 287h142q42 0 75.5 14.5t57.5 41t36.5 64.5t12.5 85q0 100 -50 152.5t-146 52.5h-296v-56h97v-585h-97v-56h275v56h-107v231z" />
    <glyph glyph-name="Q" unicode="Q" horiz-adv-x="699" 
d="M562 349q0 -67 -15.5 -122.5t-44.5 -95.5t-70 -62t-92 -22t-92 22t-70 62t-44.5 95.5t-15.5 122.5t15.5 122.5t44.5 95.5t70 62t92 22t92 -22t70 -62t44.5 -95.5t15.5 -122.5zM686 -3l-13 -2q-59 0 -122 18q-16 5 -32.5 8.5t-34.5 5.5q44 28 72 62q82 100 82 260
q0 80 -21.5 146t-60.5 113.5t-94 73.5t-122 26t-122 -26t-94 -73.5t-60.5 -113.5t-21.5 -146t21.5 -146t60.5 -113.5t94 -73.5t122 -26h6h-6q1 0 14 -1.5t33 -4.5t43 -7t43.5 -7.5t35.5 -6.5t18 -4q33 -11 68 -15.5t72 -4.5l10 1z" />
    <glyph glyph-name="R" unicode="R" horiz-adv-x="571" 
d="M185 327h99q19 -9 36.5 -25.5t34.5 -42.5t33 -64.5t33 -90.5l33 -104h124v56h-81l-26 91q-13 33 -24.5 59t-24.5 49t-28.5 44.5t-36.5 44.5q73 8 110.5 57t37.5 120q0 85 -44 130.5t-125 45.5h-324v-56h102v-585h-102v-56h270v56h-97v271zM185 382v260h134
q114 0 114 -126q0 -134 -133 -134h-115z" />
    <glyph glyph-name="S" unicode="S" horiz-adv-x="501" 
d="M461 186q0 39 -8.5 70t-30.5 55.5t-58.5 44t-91.5 36.5q-33 10 -61.5 22t-49.5 28t-33.5 37.5t-12.5 51.5q0 54 32 87t83 33q67 0 106.5 -43.5t39.5 -112.5v-6l61 -1v209h-61v-69q-24 42 -65 61t-89 19q-40 0 -73 -13t-56.5 -36.5t-36.5 -56.5t-13 -72t10 -68.5
t31.5 -52.5t56.5 -41.5t86 -34.5q42 -14 72 -27.5t49.5 -30t29 -39t9.5 -53.5q0 -60 -35 -97t-92 -37q-34 0 -62.5 13.5t-49.5 37.5t-32.5 56.5t-11.5 70.5v12h-61v-238h61v91q23 -54 67.5 -78t96.5 -24q42 0 77.5 14.5t61 40.5t40 62t14.5 79z" />
    <glyph glyph-name="T" unicode="T" horiz-adv-x="578" 
d="M324 56v581h160v-161h63v221h-519v-221h63v161h162v-581h-102v-56h275v56h-102z" />
    <glyph glyph-name="U" unicode="U" horiz-adv-x="622" 
d="M464 231q0 -88 -38.5 -134.5t-113.5 -46.5q-73 0 -111 46.5t-38 131.5v413h97v56h-256v-56h88v-421q0 -53 15 -95.5t43.5 -72.5t68.5 -46t90 -16q106 0 163.5 63t57.5 178v410h88v56h-251v-56h97v-410z" />
    <glyph glyph-name="V" unicode="V" horiz-adv-x="620" 
d="M392 641h93l-169 -561l-173 561h95v56h-244v-56h73l210 -645h67l210 645h73v56h-235v-56z" />
    <glyph glyph-name="W" unicode="W" horiz-adv-x="880" 
d="M747 641l-115 -567l-134 571l41 -1v53h-191v-53l39 1l-130 -568l-116 564h94v56h-238v-56h72l143 -645h82l142 651l153 -651h80l142 645h70v56h-229v-56h95z" />
    <glyph glyph-name="X" unicode="X" horiz-adv-x="630" 
d="M357 641h89l-125 -223l-125 223h88v56h-258v-56h85l165 -283l-180 -302h-83v-56h260v56h-100l144 249l140 -249h-98v-56h267v56h-82l-181 309l160 276h83v56h-249v-56z" />
    <glyph glyph-name="Y" unicode="Y" horiz-adv-x="577" 
d="M349 641h91l-146 -279l-146 279h94v56h-248v-56h72l187 -342v-243h-103v-56h279v56h-105v243l190 342h69v56h-234v-56z" />
    <glyph glyph-name="Z" unicode="Z" horiz-adv-x="537" 
d="M440 56h-328l380 577v64h-445v-188h63v132h299l-377 -574v-67h470v196h-62v-140z" />
    <glyph glyph-name="bracketleft" unicode="[" horiz-adv-x="308" 
d="M172 656l5 -1h93v50h-162v-900h162v50h-93l-5 -1v802z" />
    <glyph glyph-name="backslash" unicode="\" horiz-adv-x="431" 
d="M287 -6h57l-246 710h-57z" />
    <glyph glyph-name="bracketright" unicode="]" horiz-adv-x="315" 
d="M144 656v-802l-5 1h-93v-50h162v900h-162v-50h93z" />
    <glyph glyph-name="asciicircum" unicode="^" horiz-adv-x="600" 
d="M128 288l172 347l172 -347l46 14l-204 401h-28l-204 -401z" />
    <glyph glyph-name="underscore" unicode="_" horiz-adv-x="435" 
d="M450 -219v57h-450v-57h450z" />
    <glyph glyph-name="grave" unicode="`" horiz-adv-x="275" 
d="M198 567l-87 146l-63 1l108 -147h42z" />
    <glyph glyph-name="a" unicode="a" horiz-adv-x="478" 
d="M332 182q-8 -30 -20.5 -56.5t-30.5 -45.5t-40 -30t-47 -11q-39 0 -58.5 29t-19.5 71q0 52 29.5 81t93.5 29q29 0 49.5 -6t43.5 -18v-43zM332 86v-86h145v54h-81v304q0 153 -165 153q-75 0 -116.5 -36.5t-54.5 -99.5l62 -5q8 40 33.5 66.5t76.5 26.5q49 0 74.5 -26.5
t25.5 -86.5v-72q-31 10 -60.5 14t-53.5 4q-85 0 -128 -41t-43 -114q0 -33 9 -60.5t26.5 -47.5t42 -31.5t55.5 -11.5q46 0 86.5 25t65.5 71z" />
    <glyph glyph-name="b" unicode="b" horiz-adv-x="545" 
d="M168 403v294h-149v-52h83v-591h-85v-54h151v96q24 -54 63.5 -78t81.5 -24q48 0 86 18.5t64 52.5t40 82t14 108q0 58 -13.5 105.5t-38.5 81t-62 51.5t-83 18q-40 0 -82 -24.5t-70 -83.5zM166 253q0 46 10.5 84t30 65t46 42t58.5 15q31 0 56.5 -15t43.5 -42t28 -65t10 -83
q0 -47 -10 -85t-28 -65t-44.5 -42t-59.5 -15q-67 0 -104 53t-37 153z" />
    <glyph glyph-name="c" unicode="c" horiz-adv-x="446" 
d="M364 162q-11 -49 -41.5 -82.5t-75.5 -33.5q-32 0 -57 15t-43 41.5t-27.5 64t-9.5 82.5q0 96 35 151t99 55q48 0 81 -39t33 -106l53 1v186h-53v-65q-18 36 -50 57.5t-78 21.5q-42 0 -77.5 -19.5t-60.5 -55t-39 -84t-14 -105.5q0 -58 14.5 -105.5t41.5 -81t65.5 -52
t86.5 -18.5q67 0 115.5 42.5t60.5 120.5z" />
    <glyph glyph-name="d" unicode="d" horiz-adv-x="539" 
d="M386 101v-101h151v54h-85v643h-156v-52h89v-239q-29 59 -70.5 82t-81.5 23q-45 0 -81 -18.5t-60.5 -53t-38 -82.5t-13.5 -107q0 -57 13.5 -104t39 -80.5t61.5 -52.5t81 -19t86.5 25t64.5 82zM386 248q0 -45 -9.5 -82.5t-27.5 -64.5t-43.5 -41.5t-57.5 -14.5t-58 15.5
t-45 43t-29 66t-10 83.5t10.5 82.5t29 65t44.5 43t56 15.5q31 0 57 -15t44.5 -42.5t28.5 -66.5t10 -87z" />
    <glyph glyph-name="e" unicode="e" 
d="M457 137l-59 10q-6 -20 -19 -39t-30.5 -34.5t-38.5 -25t-44 -9.5q-73 0 -113 57q-38 53 -41 139h289l60 -1q-3 144 -55 210.5t-146 66.5q-47 0 -86 -17.5t-67.5 -51.5t-44.5 -83t-16 -112q0 -59 15 -106.5t42.5 -81t68 -51.5t91.5 -18q33 0 64 10.5t57 29.5t45 46.5
t28 60.5zM113 286q7 70 39 117q40 58 103 58q61 0 97 -47.5t39 -128.5l-16 1h-262z" />
    <glyph glyph-name="f" unicode="f" horiz-adv-x="247" 
d="M154 54v391h86v52h-86v73q0 49 15.5 66t43.5 17q15 0 28.5 -8.5t20.5 -15.5l8 -8l23 37l-6.5 8t-18 18t-27.5 18t-34 8q-58 0 -89 -36.5t-31 -105.5v-71h-68v-52h68v-391h-80v-54h243v54h-96z" />
    <glyph glyph-name="g" unicode="g" horiz-adv-x="539" 
d="M389 98v-84q0 -168 -137 -168q-43 0 -70.5 18.5t-40.5 48.5l-62 -17q35 -104 169 -104q99 0 153 56.5t54 162.5v438h80v48l-152 1v-99q-30 62 -67.5 86.5t-81.5 24.5q-45 0 -81 -19t-62 -53t-40 -81t-14 -104q0 -59 13.5 -106.5t39 -81.5t62 -52.5t82.5 -18.5
q48 0 88 24.5t67 79.5zM389 246q0 -43 -11 -79.5t-30 -63.5t-46 -42t-58 -15q-32 0 -57 15t-43 41.5t-27.5 64t-9.5 82.5t10 82.5t29 64.5t44.5 42t57.5 15q31 0 57 -15.5t44.5 -43.5t29 -65.5t10.5 -82.5z" />
    <glyph glyph-name="h" unicode="h" horiz-adv-x="518" 
d="M440 54v313q0 69 -30.5 106.5t-90.5 37.5q-43 0 -81 -21t-66 -61v268h-152v-52h85v-591h-85v-54h234v54h-82v280q18 54 53 88t74 34q42 0 58 -27.5t16 -85.5v-289h-85v-54h233v54h-81z" />
    <glyph glyph-name="i" unicode="i" horiz-adv-x="273" 
d="M179 54v443h-149v-52h83v-391h-83v-54h229v54h-80zM97 688v-98h78v98h-78z" />
    <glyph glyph-name="j" unicode="j" horiz-adv-x="241" 
d="M103 445v-480q0 -57 -15 -78.5t-50 -21.5l-35 5v-55l42 -5q69 0 97 37.5t28 107.5v542h-155v-52h88zM97 688v-98h78v98h-78z" />
    <glyph glyph-name="k" unicode="k" horiz-adv-x="488" 
d="M18 645h86v-591h-85v-54h232v54h-80v143l50 46l153 -191h-60v-52h185v55h-59l-182 227l168 163h66v52h-216v-52h76l-181 -176v428h-153v-52z" />
    <glyph glyph-name="l" unicode="l" horiz-adv-x="259" 
d="M14 645h85v-591h-84v-54h232v54h-82v643h-151v-52z" />
    <glyph glyph-name="m" unicode="m" horiz-adv-x="766" 
d="M684 54v313q0 69 -31.5 106.5t-91.5 37.5q-19 0 -39.5 -6.5t-39.5 -19.5t-35.5 -31t-26.5 -40q-11 45 -39 71t-71 26q-42 0 -81 -22t-61 -70v78h-152v-52h86v-391h-84v-54h229v54h-79v280q18 57 52 89.5t73 32.5q35 0 51 -25t16 -74v-303h-80v-54h226v54h-79v283
q20 54 52.5 86.5t72.5 32.5q35 0 50.5 -25t15.5 -74v-303h-81v-54h222v54h-75z" />
    <glyph glyph-name="n" unicode="n" horiz-adv-x="512" 
d="M431 54v313q0 69 -30.5 106.5t-87.5 37.5q-45 0 -83 -21t-64 -72v79h-153v-52h86v-391h-87v-54h233v54h-79v280q18 54 52.5 88t73.5 34q40 0 56 -27.5t16 -85.5v-289h-83v-54h228v54h-78z" />
    <glyph glyph-name="o" unicode="o" 
d="M460 250q0 58 -15 106t-42.5 82.5t-66.5 53.5t-87 19t-86.5 -19t-66 -53.5t-42.5 -82.5t-15 -106q0 -57 15 -105t42.5 -82.5t66 -53.5t86.5 -19t86.5 19t66.5 53.5t43 82.5t15 105zM391 250q0 -93 -37.5 -149.5t-104.5 -56.5q-66 0 -103.5 56.5t-37.5 149.5
q0 94 37.5 150.5t103.5 56.5q67 0 104.5 -56.5t37.5 -150.5z" />
    <glyph glyph-name="p" unicode="p" horiz-adv-x="535" 
d="M156 97q28 -60 67.5 -83.5t81.5 -23.5q46 0 82.5 18.5t61.5 53t38.5 83.5t13.5 109q0 57 -13 104.5t-38 81.5t-60 52.5t-79 18.5q-20 0 -41 -5.5t-41 -18.5t-39 -35t-34 -55v100h-147v-52h80v-578h-85v-54h237v54h-85v230zM155 251v5q0 94 39 148.5t103 54.5
q66 0 103 -57.5t37 -151.5q0 -45 -10 -83t-28 -65.5t-44 -43t-57 -15.5q-33 0 -59.5 14.5t-45 41.5t-28.5 65.5t-10 86.5z" />
    <glyph glyph-name="q" unicode="q" horiz-adv-x="471" 
d="M391 250q0 -93 -37.5 -149.5t-104.5 -56.5q-66 0 -103.5 56.5t-37.5 149.5q0 94 37.5 150.5t103.5 56.5q67 0 104.5 -56.5t37.5 -150.5zM347 -127q46 0 81 30.5t47 91.5h-40q-11 -40 -34.5 -58t-53.5 -18q-29 0 -52 17t-35 54q45 3 82 23t63.5 54t40.5 80.5t14 102.5
q0 58 -15 106t-42.5 82.5t-66.5 53.5t-87 19t-86.5 -19t-66 -53.5t-42.5 -82.5t-15 -106q0 -53 12.5 -98t36 -78.5t57 -54.5t75.5 -27q12 -60 47 -89.5t80 -29.5z" />
    <glyph glyph-name="r" unicode="r" horiz-adv-x="344" 
d="M176 54v209q0 94 34 139t112 45l14 -2v63h-4q-29 0 -52.5 -5.5t-42.5 -19t-34 -36.5t-27 -59v109h-154v-52h87v-391h-87v-54h252v54h-98z" />
    <glyph glyph-name="s" unicode="s" horiz-adv-x="438" 
d="M393 139q0 30 -6.5 54t-23 42t-46.5 31t-76 21q-36 6 -59 13t-36 17t-18 23.5t-5 32.5q0 36 23.5 61t66.5 25q52 0 82 -33.5t31 -87.5h54v162h-54v-56q-20 35 -51 51t-71 16q-30 0 -56.5 -10t-46 -28t-30.5 -44.5t-11 -59.5q0 -69 36 -99.5t111 -41.5q37 -6 61 -13.5
t37.5 -18t18.5 -25t5 -35.5q0 -43 -29.5 -69.5t-71.5 -26.5q-60 0 -93 35t-37 98h-55v-172h55v71q24 -48 58.5 -65t77.5 -17q72 0 115.5 41t43.5 108z" />
    <glyph glyph-name="t" unicode="t" horiz-adv-x="280" 
d="M143 107v338h110v52h-110v140l-67 -36v-104h-71v-52h71v-336q0 -60 24.5 -88.5t79.5 -28.5q42 0 66.5 24t30.5 64l-32 23q-12 -58 -54 -58q-25 0 -36.5 14.5t-11.5 47.5z" />
    <glyph glyph-name="u" unicode="u" horiz-adv-x="518" 
d="M424 497h-152v-52h85v-266q-9 -29 -22.5 -53t-30.5 -41.5t-36.5 -27.5t-40.5 -10q-37 0 -51.5 27.5t-14.5 84.5v338h-149v-52h82v-301q0 -76 27.5 -113t90.5 -37q46 0 84 22t61 67v-83h149v54h-82v443z" />
    <glyph glyph-name="v" unicode="v" horiz-adv-x="479" 
d="M415 445h63v52h-203v-52h75l-104 -387l-106 387h75v52h-210v-52h65l141 -449h68z" />
    <glyph glyph-name="w" unicode="w" horiz-adv-x="738" 
d="M414 496h5q6 0 2 0.5t-24 0.5h-68l-3 -22l-103 -408l-85 378h72v52h-200v-52h61l115 -449h71l114 443l114 -443h67l118 449h62v52h-203v-52h75l-86 -374z" />
    <glyph glyph-name="x" unicode="x" horiz-adv-x="490" 
d="M420 445h57v52h-193v-52h66l-95 -148l-96 148h64v52h-198v-52h57l134 -187l-143 -204h-57v-54h203v54h-74l103 158l107 -158h-69v-54h201v54h-56l-144 200z" />
    <glyph glyph-name="y" unicode="y" horiz-adv-x="491" 
d="M282 445h79l-104 -358l-112 358h79v52h-215v-52h64l155 -439l-35 -114q-11 -32 -29 -30l-74 4v-56l88 -3q19 -1 34 10.5t28 51.5l189 576h59v52h-206v-52z" />
    <glyph glyph-name="z" unicode="z" horiz-adv-x="450" 
d="M63 497v-167h56v114h208l-280 -388v-56h357v177h-56v-123h-236l291 389v54h-340z" />
    <glyph glyph-name="braceleft" unicode="{" horiz-adv-x="290" 
d="M42 241q40 -4 58 -35t18 -88v-175q0 -30 5.5 -55t19 -43.5t36 -29t55.5 -10.5h17v25h4q-18 0 -32.5 5.5t-24 19t-14.5 36.5t-5 58v159q0 66 -22 101t-58 46q36 11 58 46t22 101v159q0 35 5 57.5t14.5 36t24 19.5t32.5 6h-4v25h-17q-33 0 -55.5 -10.5t-36 -29t-19 -43.5
t-5.5 -55v-175q0 -57 -18 -88t-58 -35v-28z" />
    <glyph glyph-name="bar" unicode="|" horiz-adv-x="578" 
d="M258 -111h57v815h-57v-815z" />
    <glyph glyph-name="braceright" unicode="}" horiz-adv-x="290" 
d="M247 269q-38 4 -55 35t-17 88v175q0 30 -5.5 55t-18.5 43.5t-35 29t-55 10.5h-16v-25h-5q18 0 32 -6t23.5 -19.5t14 -36t4.5 -57.5v-159q0 -66 21 -101t56 -46q-35 -11 -56 -46t-21 -101v-159q0 -35 -4.5 -58t-14 -36.5t-23.5 -19t-32 -5.5h5v-25h16q33 0 55 10.5t35 29
t18.5 43.5t5.5 55v175q0 57 17 88t55 35v28z" />
    <glyph glyph-name="asciitilde" unicode="~" horiz-adv-x="602" 
d="M193 360q27 0 104 -37q38 -19 67.5 -27.5t49.5 -8.5q24 0 44 7.5t36 19.5t29 27t24 30q-22 22 -22 29q1 4 1 7t1 6q-31 -33 -56 -52.5t-57 -19.5q-14 0 -40.5 8.5t-64.5 27.5q-77 37 -116 37q-24 0 -43.5 -7.5t-35.5 -19.5t-29.5 -27t-23.5 -30q21 -20 21 -29
q-1 -3 -1 -6t-1 -7q28 33 55 52.5t58 19.5z" />
    <glyph glyph-name="quotesinglbase" unicode="&#x201a;" horiz-adv-x="238" 
d="M132 96h-40q1 0 1 -48q0 -36 -1 -39q0 -5 13 -9h24q0 -12 -4.5 -32t-11 -38.5t-13.5 -32t-11 -13.5l29 -18q8 0 17.5 15t18 35t14 41t5.5 35v104h-41z" />
    <glyph glyph-name="florin" unicode="&#x192;" 
d="M395 728q-109 0 -133 -126l-21 -107h-77l-10 -52h77l-85 -473q-6 -34 -13 -54.5t-15.5 -31t-19.5 -14t-26 -3.5l-55 9l-9 -55q13 -4 34 -8.5t35 -4.5q56 0 90 34t49 117l87 484h98l11 52h-99l17 90q9 49 27 66.5t46 17.5l56 -8l9 54q-16 5 -34.5 9t-38.5 4z" />
    <glyph glyph-name="quotedblbase" unicode="&#x201e;" horiz-adv-x="466" 
d="M353 96h-40q1 0 1 -48q0 -36 -1 -39q0 -5 13 -9h24q0 -12 -4.5 -32t-11 -38.5t-13.5 -32t-11 -13.5l29 -18q8 0 17.5 15t18 35t14 41t5.5 35v104h-41zM139 96h-40q1 0 1 -48q0 -36 -1 -39q0 -5 13 -9h24q0 -12 -4.5 -32t-11 -38.5t-13.5 -32t-11 -13.5l29 -18
q8 0 17.5 15t18 35t14 41t5.5 35v104h-41z" />
    <glyph glyph-name="ellipsis" unicode="&#x2026;" horiz-adv-x="900" 
d="M424 97v-98h78v98h-78zM756 97v-98h78v98h-78zM91 97v-98h78v98h-78z" />
    <glyph glyph-name="dagger" unicode="&#x2020;" horiz-adv-x="463" 
d="M268 697h-70l9 -219q-29 1 -49.5 2t-32.5 3t-33 3t-52 1v-63q31 0 52 1t33 3t32.5 3t49.5 2v-36q0 -16 -1 -30q0 -25 -8 -60l9 -407h52l9 407q-4 17 -5.5 31.5t-2.5 28.5t-1 30v36q29 -1 50 -2t32 -3q12 -2 33 -3t52 -1v63q-31 0 -52 -1t-33 -3q-11 -2 -32 -3t-50 -2
q1 40 2 68t3 44t3 42.5t1 64.5z" />
    <glyph glyph-name="daggerdbl" unicode="&#x2021;" horiz-adv-x="473" 
d="M273 697h-68q0 -38 0.5 -61t2 -42.5t2.5 -40.5t3 -54q-29 1 -50 2t-34 3q-12 2 -33 3t-52 1v-63q31 0 52 1t33 3q13 2 34 3t50 2q0 -20 -0.5 -40t-1.5 -40q-1 -38 -14 -80q13 -42 14 -76q1 -17 1.5 -35t0.5 -38q-29 1 -50 2t-34 3q-12 2 -33 3t-52 1v-63q31 0 52 1t33 3
q13 2 34 3t50 2q-2 -35 -3 -56.5t-2.5 -41t-2 -43t-0.5 -61.5h68q0 38 -0.5 61.5t-2 43t-3 41t-2.5 56.5q29 -1 50 -2t33 -3q23 -4 86 -4v63q-63 0 -86 -4q-12 -2 -33 -3t-50 -2q0 20 0.5 38t1.5 35q1 34 14 76q-13 42 -14 80q-1 20 -1.5 40t-0.5 40q29 -1 50 -2t33 -3
q23 -4 86 -4v63q-63 0 -86 -4q-12 -2 -33 -3t-50 -2q1 33 2.5 54t3 40.5t2 42.5t0.5 61z" />
    <glyph glyph-name="circumflex" unicode="&#x2c6;" horiz-adv-x="263" 
d="M5 569h50l79 103l79 -103h50l-98 142h-62z" />
    <glyph glyph-name="perthousand" unicode="&#x2030;" horiz-adv-x="884" 
d="M493 704l-446 -711h47l445 711h-46zM146 709q-60 0 -91 -48t-31 -130q0 -85 30 -133t90 -48q61 0 91.5 47.5t30.5 132.5q0 87 -29.5 133t-90.5 46zM146 669q35 0 50.5 -36t15.5 -102t-16 -103t-50 -37q-35 0 -50.5 35.5t-15.5 101.5q0 64 16.5 102.5t49.5 38.5zM438 346
q-60 0 -91.5 -48t-31.5 -130q0 -85 30.5 -132.5t90.5 -47.5q61 0 91 47t30 132q0 87 -29 133t-90 46zM438 306q35 0 50 -36t15 -102t-16 -102.5t-49 -36.5q-36 0 -51.5 35t-15.5 101q0 64 17 102.5t50 38.5zM774 346q-60 0 -91.5 -48t-31.5 -130q0 -85 30.5 -132.5
t90.5 -47.5q61 0 91 47t30 132q0 87 -29 133t-90 46zM774 306q35 0 50 -36t15 -102t-16 -102.5t-49 -36.5q-36 0 -51.5 35t-15.5 101q0 64 17 102.5t50 38.5z" />
    <glyph glyph-name="Scaron" unicode="&#x160;" horiz-adv-x="501" 
d="M461 186q0 39 -8.5 70t-30.5 55.5t-58.5 44t-91.5 36.5q-33 10 -61.5 22t-49.5 28t-33.5 37.5t-12.5 51.5q0 54 32 87t83 33q67 0 106.5 -43.5t39.5 -112.5v-6l61 -1v209h-61v-69q-24 42 -65 61t-89 19q-40 0 -73 -13t-56.5 -36.5t-36.5 -56.5t-13 -72t10 -68.5
t31.5 -52.5t56.5 -41.5t86 -34.5q42 -14 72 -27.5t49.5 -30t29 -39t9.5 -53.5q0 -60 -35 -97t-92 -37q-34 0 -62.5 13.5t-49.5 37.5t-32.5 56.5t-11.5 70.5v12h-61v-238h61v91q23 -54 67.5 -78t96.5 -24q42 0 77.5 14.5t61 40.5t40 62t14.5 79zM124 909l98 -142h62l98 142
h-50l-79 -103l-79 103h-50z" />
    <glyph glyph-name="guilsinglleft" unicode="&#x2039;" horiz-adv-x="233" 
d="M103 256l101 228h-60l-106 -228l105 -228h60z" />
    <glyph glyph-name="OE" unicode="&#x152;" horiz-adv-x="913" 
d="M375 647l69 -4v-587l-75 -3q-60 -2 -105 17t-75.5 56.5t-46 93t-15.5 125.5q0 148 61.5 228.5t186.5 73.5zM854 0v195h-63v-140h-276v273h162v-54h36v163h-36v-54h-162v259h277v-134h62v189h-375l-124 5q-72 3 -128.5 -20.5t-95 -69.5t-59 -112t-20.5 -147
q0 -84 20 -150.5t58.5 -112t95 -69.5t129.5 -23l125 2h374z" />
    <glyph glyph-name="quoteleft" unicode="&#x2018;" horiz-adv-x="238" 
d="M173 467v50v38q0 5 -13 8h-23q0 12 4.5 32t10.5 38.5t13 32t12 13.5l-29 18q-8 0 -17.5 -15t-18 -35t-14.5 -41.5t-6 -34.5v-104h81z" />
    <glyph glyph-name="quoteright" unicode="&#x2019;" horiz-adv-x="238" 
d="M129 697h-40q1 0 1 -48q0 -36 -1 -39q0 -5 13 -9h24q0 -12 -4.5 -32t-11 -38.5t-13.5 -32t-11 -13.5l29 -18q8 0 17.5 15t18 35t14 41t5.5 35v104h-41z" />
    <glyph glyph-name="quotedblleft" unicode="&#x201c;" horiz-adv-x="466" 
d="M389 467v50v38q0 5 -13 8h-23q0 12 4.5 32t10.5 38.5t13 32t12 13.5l-29 18q-8 0 -17.5 -15t-18 -35t-14.5 -41.5t-6 -34.5v-104h81zM177 467v50v38q0 5 -13 8h-23q0 12 4.5 32t10.5 38.5t13 32t12 13.5l-29 18q-8 0 -17.5 -15t-18 -35t-14.5 -41.5t-6 -34.5v-104h81z
" />
    <glyph glyph-name="quotedblright" unicode="&#x201d;" horiz-adv-x="466" 
d="M352 697h-40q1 0 1 -48q0 -36 -1 -39q0 -5 13 -9h24q0 -12 -4.5 -32t-11 -38.5t-13.5 -32t-11 -13.5l29 -18q8 0 17.5 15t18 35t14 41t5.5 35v104h-41zM140 697h-40q1 0 1 -48q0 -36 -1 -39q0 -5 13 -9h24q0 -12 -4.5 -32t-11 -38.5t-13.5 -32t-11 -13.5l29 -18
q8 0 17.5 15t18 35t14 41t5.5 35v104h-41z" />
    <glyph glyph-name="bullet" unicode="&#x2022;" horiz-adv-x="445" 
d="M202 451q-21 0 -39.5 -8t-32 -22t-21.5 -32.5t-8 -39.5t8 -39.5t21.5 -32.5t32 -22t39.5 -8t39.5 8t32 22t21.5 32.5t8 39.5t-8 39.5t-21.5 32.5t-32 22t-39.5 8z" />
    <glyph glyph-name="endash" unicode="&#x2013;" horiz-adv-x="528" 
d="M0 292v-58h508v58h-508z" />
    <glyph glyph-name="emdash" unicode="&#x2014;" horiz-adv-x="1000" 
d="M0 292v-58h980v58h-980z" />
    <glyph glyph-name="tilde" unicode="&#x2dc;" horiz-adv-x="270" 
d="M284 684h-29q-7 -27 -19 -38t-28 -11q-22 0 -64 23q-21 11 -38.5 17.5t-31.5 6.5q-31 0 -51.5 -24t-27.5 -69h29q7 27 19 38t28 11q11 0 26.5 -6.5t36.5 -17.5q42 -23 71 -23q31 0 51.5 24t27.5 69z" />
    <glyph glyph-name="trademark" unicode="&#x2122;" horiz-adv-x="867" 
d="M340 646v51h-284v-51h5l11 1h99v-353h54v353h99l11 -1h5zM746 697h-89l-90 -307l-85 307h-91v-403h57v354l102 -354h33l109 354v-354h54v403z" />
    <glyph glyph-name="scaron" unicode="&#x161;" horiz-adv-x="438" 
d="M393 139q0 30 -6.5 54t-23 42t-46.5 31t-76 21q-36 6 -59 13t-36 17t-18 23.5t-5 32.5q0 36 23.5 61t66.5 25q52 0 82 -33.5t31 -87.5h54v162h-54v-56q-20 35 -51 51t-71 16q-30 0 -56.5 -10t-46 -28t-30.5 -44.5t-11 -59.5q0 -69 36 -99.5t111 -41.5q37 -6 61 -13.5
t37.5 -18t18.5 -25t5 -35.5q0 -43 -29.5 -69.5t-71.5 -26.5q-60 0 -93 35t-37 98h-55v-172h55v71q24 -48 58.5 -65t77.5 -17q72 0 115.5 41t43.5 108zM93 711l98 -142h62l98 142h-50l-79 -103l-79 103h-50z" />
    <glyph glyph-name="guilsinglright" unicode="&#x203a;" horiz-adv-x="233" 
d="M134 256l-99 -228h59l105 228l-106 228h-59z" />
    <glyph glyph-name="oe" unicode="&#x153;" horiz-adv-x="768" 
d="M360 250q0 -93 -33.5 -149.5t-92.5 -56.5q-60 0 -93 56.5t-33 149.5q0 94 33 150.5t93 56.5t93 -56.5t33 -150.5zM391 114q22 -63 65.5 -93.5t101.5 -30.5q30 0 57 10.5t49.5 29.5t38.5 46.5t24 60.5l-59 10q-5 -20 -16 -39t-26.5 -34.5t-34 -25t-37.5 -9.5q-64 0 -98 57
q-32 53 -35 139h243l67 -1q-2 63 -13.5 114t-33.5 87t-54 56t-74 20q-63 0 -103 -33t-61 -94q-14 57 -54.5 92t-106.5 35q-45 0 -80.5 -19t-60 -53.5t-38 -82.5t-13.5 -106q0 -57 13 -105t38 -82.5t60 -53.5t79 -19q60 0 102.5 32t59.5 92zM422 286q4 70 33 117q34 58 89 58
q54 0 84.5 -47.5t32.5 -128.5l-22 1h-217z" />
    <glyph glyph-name="Ydieresis" unicode="&#x178;" horiz-adv-x="577" 
d="M349 641h91l-146 -279l-146 279h94v56h-248v-56h72l187 -342v-243h-103v-56h279v56h-105v243l190 342h69v56h-234v-56zM160 822v-76h76v76h-76zM342 822v-76h76v76h-76z" />
    <glyph glyph-name="exclamdown" unicode="&#xa1;" horiz-adv-x="288" 
d="M197 412v95h-75v-95h75zM122 -191h77l-5 234l-12 289h-46l-10 -287z" />
    <glyph glyph-name="cent" unicode="&#xa2;" horiz-adv-x="474" 
d="M212 -155l21 148q5 -1 12 -1.5t16 -0.5q67 0 115 42.5t60 120.5l-59 9q-11 -49 -41 -82.5t-75 -33.5q-7 0 -11.5 0.5t-8.5 1.5l56 394q13 -5 23 -13t18 -18q33 -39 33 -106l53 1v186h-53v-65q-18 35 -50 57q-4 2 -7.5 4.5t-8.5 4.5l21 151h-37l-20 -140q-5 1 -11.5 1.5
t-13.5 0.5q-42 0 -77 -19.5t-59.5 -54.5t-38.5 -82.5t-14 -104.5q0 -116 55 -186q31 -41 87 -60l-22 -155h37zM206 61q-28 17 -44 42q-36 55 -36 145q0 94 34.5 148.5t97.5 54.5h3z" />
    <glyph glyph-name="sterling" unicode="&#xa3;" horiz-adv-x="480" 
d="M144 27q60 -15 128 -23t134 -8q14 0 24 20.5t10 53.5v92h-58v-53q0 -14 -1 -25t-2 -18q-2 -14 -10 -14q-45 0 -85 10.5t-82 28.5l5 42l-1 203h103v56h-102q-7 36 -15 72.5t-8 66.5q0 63 24 92.5t66 29.5q46 0 67 -32q8 -13 14 -29t4 -35l-1 -15h69v13q0 67 -37 108
q-40 46 -118 46q-39 0 -69 -13.5t-49.5 -38.5t-29.5 -59t-10 -75q0 -18 1.5 -33.5t4.5 -30.5t7 -31t10 -36h-95v-56h96l4 -68l-2 -165q-1 1 -7 -10q-8 8 -19 13.5t-24 5.5q-25 0 -42.5 -17.5t-17.5 -42.5t17.5 -42.5t42.5 -17.5q5 0 7 1q-3 -11 -4.5 -16l-1.5 -5l2 5.5
t5 15.5q16 2 28 11t18 23z" />
    <glyph glyph-name="currency" unicode="&#xa4;" horiz-adv-x="659" 
d="M-8 253h75q20 -123 92 -193t186 -70q107 0 179 59t92 183l-69 13q-17 -102 -68.5 -148t-126.5 -46q-82 0 -135 54t-71 148h372v42h-378q-3 25 -3 55q0 29 3 56h378v42h-372q18 94 71 147t136 53q37 0 69.5 -11t57.5 -34.5t41 -58.5t19 -83l62 1v235h-59v-108
q-32 60 -85 89.5t-116 29.5q-54 0 -99 -18.5t-80 -52t-59 -81.5t-35 -108h-77v-42h71q-3 -29 -3 -58q0 -14 0.5 -27t1.5 -26h-70v-42z" />
    <glyph glyph-name="yen" unicode="&#xa5;" horiz-adv-x="495" 
d="M-10 309v-45h221v-208h-103v-56h278v56h-105v208h222v45h-215l47 96h168v45h-146l92 191h71v56h-235v-56h90q-24 -55 -39.5 -90t-28 -63.5t-25 -56.5t-30.5 -69q-30 70 -60.5 139.5t-60.5 139.5h93v56h-248v-56h73l88 -191h-147v-45h168l45 -96h-213z" />
    <glyph glyph-name="brokenbar" unicode="&#xa6;" horiz-adv-x="578" 
d="M258 -111h57v327h-57v-327zM258 376h57v328h-57v-328z" />
    <glyph glyph-name="section" unicode="&#xa7;" horiz-adv-x="444" 
d="M164 402l104 -55q40 -21 54 -44t14 -58q0 -32 -15 -59.5t-37 -44.5l-105 56q-40 21 -54 44t-14 57q0 33 15 60.5t38 43.5zM323 117q36 21 58.5 57t22.5 82q0 27 -7 48t-21.5 39t-37.5 34t-55 34l-56 31q-53 29 -80 53.5t-27 62.5q0 24 8.5 42.5t22.5 30.5t30.5 18t33.5 6
q45 0 73 -28.5t30 -91.5l72 2q0 46 -13.5 78.5t-37 53t-54.5 30t-67 9.5t-66 -10.5t-52.5 -30t-35 -48t-12.5 -64.5q0 -42 19.5 -74.5t52.5 -54.5q-36 -21 -58.5 -57t-22.5 -82q0 -27 7 -48t21.5 -39t37.5 -34t55 -34l56 -31q53 -29 80 -53.5t27 -62.5q0 -24 -8.5 -42.5
t-22.5 -30.5t-31 -18t-33 -6q-45 0 -73 28.5t-30 91.5l-72 -2q0 -46 13.5 -78.5t37 -53t54.5 -30t67 -9.5t66 10.5t52.5 30t35 48t12.5 64.5q0 42 -19.5 74.5t-52.5 54.5z" />
    <glyph glyph-name="dieresis" unicode="&#xa8;" horiz-adv-x="306" 
d="M23 624v-76h76v76h-76zM205 624v-76h76v76h-76z" />
    <glyph glyph-name="copyright" unicode="&#xa9;" horiz-adv-x="735" 
d="M372 652q-69 0 -129.5 -26t-105.5 -71t-71 -105.5t-26 -129.5t26 -129.5t71.5 -105.5t106 -71t129.5 -26t129.5 26t105.5 71t71 105.5t26 129.5t-26 129.5t-71.5 105.5t-106 71t-129.5 26zM373 608q60 0 112.5 -22.5t91.5 -61.5t61.5 -91.5t22.5 -112.5t-22.5 -112.5
t-62 -91.5t-92 -61.5t-112.5 -22.5t-112.5 22.5t-91.5 61.5t-61.5 91.5t-22.5 112.5t22.5 112.5t62 91.5t92 61.5t112.5 22.5zM516 406h17q-6 19 -18 37.5t-31.5 33t-45.5 23.5t-59 9q-42 0 -75.5 -14.5t-57.5 -40t-37 -60.5t-13 -75q0 -45 13 -81t37 -61.5t57 -39t72 -13.5
q60 0 103 31.5t58 83.5l-16 2l-32 13q-10 -38 -40 -63.5t-72 -25.5q-30 0 -53.5 12.5t-40 33.5t-25 49t-8.5 60t9 60t25.5 49t41 33t54.5 12q42 0 69 -23t33 -55z" />
    <glyph glyph-name="ordfeminine" unicode="&#xaa;" horiz-adv-x="301" 
d="M215 519q-9 -34 -30 -57t-51 -23q-23 0 -34.5 16t-11.5 40q0 61 72 61q18 0 30 -3t25 -10v-24zM215 465v-48h86v30h-48v170q0 86 -97 86q-45 0 -69 -20.5t-32 -55.5l36 -3q5 23 20 37.5t45 14.5q29 0 44 -15t15 -48v-40l-67 10q-49 0 -75 -22.5t-26 -64.5q0 -36 21 -60.5
t58 -24.5q27 0 51 14t38 40z" />
    <glyph glyph-name="guillemotleft" unicode="&#xab;" horiz-adv-x="462" 
d="M312 256l101 228h-60l-106 -228l105 -228h60zM117 256l101 228h-60l-106 -228l105 -228h60z" />
    <glyph glyph-name="logicalnot" unicode="&#xac;" horiz-adv-x="608" 
d="M487 168h52v295h-466v-52h414v-243z" />
    <glyph glyph-name="registered" unicode="&#xae;" horiz-adv-x="735" 
d="M288 338v129h96q45 0 68.5 -13t23.5 -50q0 -30 -21.5 -48t-79.5 -18h-87zM372 652q-69 0 -129.5 -26t-105.5 -71t-71 -105.5t-26 -129.5t26 -129.5t71.5 -105.5t106 -71t129.5 -26t129.5 26t105.5 71t71 105.5t26 129.5t-26 129.5t-71.5 105.5t-106 71t-129.5 26z
M373 608q60 0 112.5 -22.5t91.5 -61.5t61.5 -91.5t22.5 -112.5t-22.5 -112.5t-62 -91.5t-92 -61.5t-112.5 -22.5t-112.5 22.5t-91.5 61.5t-61.5 91.5t-22.5 112.5t22.5 112.5t62 91.5t92 61.5t112.5 22.5zM285 133v13l3 26v125h58q25 0 66 -54q43 -58 64 -110l62 -5
q-8 18 -23.5 47t-33.5 56t-35.5 47.5t-27.5 22.5q54 4 83 30t29 75q0 42 -29 71t-97 29h-166v-13l-2 -26v-295l2 -26v-13h47z" />
    <glyph glyph-name="macron" unicode="&#xaf;" horiz-adv-x="265" 
d="M7 656v-37h257v37h-257z" />
    <glyph glyph-name="degree" unicode="&#xb0;" horiz-adv-x="363" 
d="M183 694q-27 0 -50.5 -10.5t-41 -28t-28 -41.5t-10.5 -51t10.5 -50.5t28 -41t41.5 -28t51 -10.5t50.5 10.5t41 28t28 41.5t10.5 51t-10.5 50.5t-28 41t-41.5 28t-51 10.5zM184 653q18 0 34.5 -7t28.5 -19t19 -28.5t7 -35.5q0 -18 -7 -34.5t-19 -28.5t-28.5 -19t-35.5 -7
q-18 0 -34.5 7t-28.5 19t-19 28.5t-7 35.5q0 18 7 34.5t19 28.5t28.5 19t35.5 7z" />
    <glyph glyph-name="plusminus" unicode="&#xb1;" horiz-adv-x="608" 
d="M278 406h-207v-53h207v-232h53v232h206v53h-206v231h-53v-231zM71 0h466v53h-466v-53z" />
    <glyph glyph-name="twosuperior" unicode="&#xb2;" horiz-adv-x="295" 
d="M30 313h236l2 111h-36v-79h-164q11 31 33 57.5t63 58.5q31 24 50.5 43t30 36.5t14 33.5t3.5 34q0 46 -29.5 74t-78.5 28q-57 0 -87 -31.5t-30 -88.5v-5h44v4q0 42 18.5 66t53.5 24q28 0 46 -20t18 -52q0 -15 -3 -27.5t-13 -26.5t-27.5 -31.5t-46.5 -42.5
q-47 -32 -68.5 -68t-28.5 -64v-34z" />
    <glyph glyph-name="threesuperior" unicode="&#xb3;" horiz-adv-x="295" 
d="M87 602q1 36 18.5 56.5t47.5 20.5q32 0 50.5 -20t18.5 -52q0 -37 -23.5 -57.5t-68.5 -19.5v-32l11 1q45 0 69 -21t24 -59q0 -34 -23 -57t-57 -23t-54.5 23.5t-23.5 65.5h-44q2 -57 35 -89t90 -32q54 0 87 30t33 81q0 42 -23.5 67.5t-65.5 29.5q39 10 58.5 34t19.5 57
q0 48 -29 76t-80 28q-52 0 -82.5 -28.5t-31.5 -79.5h44z" />
    <glyph glyph-name="acute" unicode="&#xb4;" horiz-adv-x="276" 
d="M84 567h41l109 147l-64 -1z" />
    <glyph glyph-name="mu" unicode="&#xb5;" horiz-adv-x="523" 
d="M426 497h-152v-52h85v-266q-17 -57 -52 -94.5t-77 -37.5q-37 0 -50.5 27.5t-13.5 84.5v338h-149v-52h82v-632h67v213q10 -13 25 -22.5t39 -9.5q42 0 76 22t53 67v-83h149v54h-82v443z" />
    <glyph glyph-name="paragraph" unicode="&#xb6;" horiz-adv-x="522" 
d="M416 632h91v65h-272q-44 0 -79.5 -13.5t-61 -38t-39.5 -59.5t-14 -78q0 -42 12.5 -77.5t36 -61.5t56.5 -41t75 -16v-482h59v803h77v-803h59v802z" />
    <glyph glyph-name="periodcentered" unicode="&#xb7;" horiz-adv-x="256" 
d="M91 399v-98h78v98h-78z" />
    <glyph glyph-name="periodcentered" unicode="&#x2219;" horiz-adv-x="256" 
d="M91 399v-98h78v98h-78z" />
    <glyph glyph-name="cedilla" unicode="&#xb8;" horiz-adv-x="281" 
d="M50 -200q6 -2 18 -5.5t26 -3.5q58 0 90.5 22.5t32.5 65.5q0 34 -18 53.5t-50 19.5l-14 -3l28 53h-31l-38 -83l2 -7l17 5q22 0 36 -12t14 -31q0 -25 -19 -38t-51 -13q-12 0 -24 4l-12 4z" />
    <glyph glyph-name="onesuperior" unicode="&#xb9;" horiz-adv-x="295" 
d="M197 343v360h-29l-95 -38v-38q22 7 42 17.5t38 21.5v-323h-64v-30h171v30h-63z" />
    <glyph glyph-name="ordmasculine" unicode="&#xba;" horiz-adv-x="310" 
d="M292 557q0 66 -33.5 106t-90.5 40t-90.5 -40t-33.5 -106q0 -64 33.5 -105t90.5 -41t90.5 41t33.5 105zM251 557q0 -52 -22 -83.5t-61 -31.5t-61.5 31.5t-22.5 83.5q0 54 22.5 85t61.5 31t61 -31t22 -85z" />
    <glyph glyph-name="guillemotright" unicode="&#xbb;" horiz-adv-x="462" 
d="M343 256l-99 -228h59l105 228l-106 228h-59zM148 256l-99 -228h59l105 228l-106 228h-59z" />
    <glyph glyph-name="onequarter" unicode="&#xbc;" horiz-adv-x="755" 
d="M157 343v360h-29l-95 -38v-38q22 7 42 17.5t38 21.5v-323h-64v-30h171v30h-63zM144 0h41l429 704h-41zM596 392l-151 -245l8 -38h151v-79h-59v-30h146v30h-48v79h67v29h-67v254h-47zM604 352v-214h-124z" />
    <glyph glyph-name="onehalf" unicode="&#xbd;" horiz-adv-x="755" 
d="M157 343v360h-29l-95 -38v-38q22 7 42 17.5t38 21.5v-323h-64v-30h171v30h-63zM127 0h41l429 704h-41zM490 0h236l2 111h-36v-79h-164q11 31 33 57.5t63 58.5q31 24 50.5 43t30 36.5t14 33.5t3.5 34q0 46 -29.5 74t-78.5 28q-57 0 -87 -31.5t-30 -88.5v-5h44v4
q0 42 18.5 66t53.5 24q28 0 46 -20t18 -52q0 -15 -3 -27.5t-13 -26.5t-27.5 -31.5t-46.5 -42.5q-47 -32 -68.5 -68t-28.5 -64v-34z" />
    <glyph glyph-name="threequarters" unicode="&#xbe;" horiz-adv-x="755" 
d="M80 602q1 36 18.5 56.5t47.5 20.5q32 0 50.5 -20t18.5 -52q0 -37 -23.5 -57.5t-68.5 -19.5v-32l11 1q45 0 69 -21t24 -59q0 -34 -23 -57t-57 -23t-54.5 23.5t-23.5 65.5h-44q2 -57 35 -89t90 -32q54 0 87 30t33 81q0 42 -23.5 67.5t-65.5 29.5q39 10 58.5 34t19.5 57
q0 48 -29 76t-80 28q-52 0 -82.5 -28.5t-31.5 -79.5h44zM180 0h41l429 704h-41zM632 392l-151 -245l8 -38h151v-79h-59v-30h146v30h-48v79h67v29h-67v254h-47zM640 352v-214h-124z" />
    <glyph glyph-name="questiondown" unicode="&#xbf;" horiz-adv-x="420" 
d="M214 -201q43 0 76 14t55.5 39t34 59.5t12.5 76.5h-70q-1 -61 -28.5 -97t-75.5 -36q-49 0 -77 37t-28 92q0 66 35 100t93 48q12 12 18.5 23t10 23t4.5 25.5t1 30.5l-9 98h-55l-6 -72q-1 -15 -2 -26t-3.5 -20t-8 -17t-14.5 -17q-75 -34 -104.5 -83.5t-29.5 -116.5
q0 -35 11.5 -67.5t33 -57.5t53.5 -40.5t73 -15.5zM277 413v95h-75v-95h75z" />
    <glyph glyph-name="Agrave" unicode="&#xc0;" horiz-adv-x="637" 
d="M423 303h-206l105 344zM650 56h-77l-195 583h43v58h-197v-58h43l-195 -583h-80v-56h246v56h-94l56 192h241l56 -192h-92v-56h245v56zM378 765l-87 146l-63 1l108 -147h42z" />
    <glyph glyph-name="Aacute" unicode="&#xc1;" horiz-adv-x="637" 
d="M423 303h-206l105 344zM650 56h-77l-195 583h43v58h-197v-58h43l-195 -583h-80v-56h246v56h-94l56 192h241l56 -192h-92v-56h245v56zM263 765h41l109 147l-64 -1z" />
    <glyph glyph-name="Acircumflex" unicode="&#xc2;" horiz-adv-x="637" 
d="M423 303h-206l105 344zM650 56h-77l-195 583h43v58h-197v-58h43l-195 -583h-80v-56h246v56h-94l56 192h241l56 -192h-92v-56h245v56zM191 767h50l79 103l79 -103h50l-98 142h-62z" />
    <glyph glyph-name="Atilde" unicode="&#xc3;" horiz-adv-x="637" 
d="M423 303h-206l105 344zM650 56h-77l-195 583h43v58h-197v-58h43l-195 -583h-80v-56h246v56h-94l56 192h241l56 -192h-92v-56h245v56zM466 882h-29q-7 -27 -19 -38t-28 -11q-22 0 -64 23q-21 11 -38.5 17.5t-31.5 6.5q-31 0 -51.5 -24t-27.5 -69h29q7 27 19 38t28 11
q11 0 26.5 -6.5t36.5 -17.5q42 -23 71 -23q31 0 51.5 24t27.5 69z" />
    <glyph glyph-name="Adieresis" unicode="&#xc4;" horiz-adv-x="637" 
d="M423 303h-206l105 344zM650 56h-77l-195 583h43v58h-197v-58h43l-195 -583h-80v-56h246v56h-94l56 192h241l56 -192h-92v-56h245v56zM187 822v-76h76v76h-76zM369 822v-76h76v76h-76z" />
    <glyph glyph-name="Aring" unicode="&#xc5;" horiz-adv-x="637" 
d="M423 303h-206l105 344zM650 56h-77l-195 583h43v58h-197v-58h43l-195 -583h-80v-56h246v56h-94l56 192h241l56 -192h-92v-56h245v56zM320 930q-36 0 -61.5 -25.5t-25.5 -61.5t25.5 -61.5t61.5 -25.5t61.5 25.5t25.5 61.5t-25.5 61.5t-61.5 25.5zM320 898q23 0 39 -16
t16 -39t-16 -39t-39 -16t-39 16t-16 39t16 39t39 16z" />
    <glyph glyph-name="AE" unicode="&#xc6;" horiz-adv-x="876" 
d="M373 649h23l23 -312h-188zM422 282l11 -226h-107v-56h500v195h-63v-140h-259l-18 273h163v-54h36v163h-36v-54h-168l-18 259h301v-134h62v189h-566v-22h56l-285 -619h-55v-56h218v56h-90l100 226h218z" />
    <glyph glyph-name="Ccedilla" unicode="&#xc7;" horiz-adv-x="659" 
d="M137 350q0 69 14.5 124t42.5 93.5t68 59.5t91 21q37 0 69.5 -11t57.5 -34.5t41 -58.5t19 -83l62 1v235h-59v-108q-32 60 -85 89.5t-116 29.5q-64 0 -116 -26t-89 -73.5t-57 -113.5t-20 -147q0 -82 19.5 -148.5t56 -113t89.5 -71.5t120 -25q107 0 179 59t92 183l-69 13
q-17 -102 -68.5 -148t-126.5 -46q-51 0 -90.5 21.5t-67.5 60.5t-42.5 94t-14.5 123zM247 -200q6 -2 18 -5.5t26 -3.5q58 0 90.5 22.5t32.5 65.5q0 34 -18 53.5t-50 19.5l-14 -3l28 53h-31l-38 -83l2 -7l17 5q22 0 36 -12t14 -31q0 -25 -19 -38t-51 -13q-12 0 -24 4l-12 4z
" />
    <glyph glyph-name="Egrave" unicode="&#xc8;" horiz-adv-x="587" 
d="M538 0v195h-63v-140h-292v273h168v-54h46v163h-46v-54h-168v259h293v-134h62v189h-522v-56h96v-585h-95v-56h521zM354 765l-87 146l-63 1l108 -147h42z" />
    <glyph glyph-name="Eacute" unicode="&#xc9;" horiz-adv-x="587" 
d="M538 0v195h-63v-140h-292v273h168v-54h46v163h-46v-54h-168v259h293v-134h62v189h-522v-56h96v-585h-95v-56h521zM240 765h41l109 147l-64 -1z" />
    <glyph glyph-name="Ecircumflex" unicode="&#xca;" horiz-adv-x="587" 
d="M538 0v195h-63v-140h-292v273h168v-54h46v163h-46v-54h-168v259h293v-134h62v189h-522v-56h96v-585h-95v-56h521zM167 767h50l79 103l79 -103h50l-98 142h-62z" />
    <glyph glyph-name="Edieresis" unicode="&#xcb;" horiz-adv-x="587" 
d="M538 0v195h-63v-140h-292v273h168v-54h46v163h-46v-54h-168v259h293v-134h62v189h-522v-56h96v-585h-95v-56h521zM164 822v-76h76v76h-76zM346 822v-76h76v76h-76z" />
    <glyph glyph-name="Igrave" unicode="&#xcc;" horiz-adv-x="287" 
d="M192 56v585h93v56h-257v-56h94v-585h-93v-56h257v56h-94zM204 765l-87 146l-63 1l108 -147h42z" />
    <glyph glyph-name="Iacute" unicode="&#xcd;" horiz-adv-x="287" 
d="M192 56v585h93v56h-257v-56h94v-585h-93v-56h257v56h-94zM89 765h41l109 147l-64 -1z" />
    <glyph glyph-name="Icircumflex" unicode="&#xce;" horiz-adv-x="287" 
d="M192 56v585h93v56h-257v-56h94v-585h-93v-56h257v56h-94zM28 767h50l79 103l79 -103h50l-98 142h-62z" />
    <glyph glyph-name="Idieresis" unicode="&#xcf;" horiz-adv-x="287" 
d="M192 56v585h93v56h-257v-56h94v-585h-93v-56h257v56h-94zM38 822v-76h76v76h-76zM220 822v-76h76v76h-76z" />
    <glyph glyph-name="Eth" unicode="&#xd0;" horiz-adv-x="650" 
d="M179 388v254h107q121 0 181.5 -77t60.5 -222q0 -143 -60.5 -215.5t-185.5 -72.5h-103v286h177v47h-177zM11 388v-47h97v-285h-98v-56h273q85 0 145.5 25.5t99 72t56 110t17.5 140.5q0 81 -18.5 145.5t-57 109.5t-97.5 69.5t-140 24.5h-279v-54l99 1v-256h-97z" />
    <glyph glyph-name="Ntilde" unicode="&#xd1;" horiz-adv-x="677" 
d="M512 82l-297 615h-196v-56h97l2 -585h-99v-56h258v56h-100v573l310 -634h86l-2 646h96v56h-254v-56h99v-559zM488 882h-29q-7 -27 -19 -38t-28 -11q-22 0 -64 23q-21 11 -38.5 17.5t-31.5 6.5q-31 0 -51.5 -24t-27.5 -69h29q7 27 19 38t28 11q11 0 26.5 -6.5t36.5 -17.5
q42 -23 71 -23q31 0 51.5 24t27.5 69z" />
    <glyph glyph-name="Ograve" unicode="&#xd2;" horiz-adv-x="699" 
d="M573 349q0 -67 -15.5 -122.5t-44.5 -95.5t-70 -62t-92 -22t-92 22t-70 62t-44.5 95.5t-15.5 122.5t15.5 122.5t44.5 95.5t70 62t92 22t92 -22t70 -62t44.5 -95.5t15.5 -122.5zM649 349q0 80 -21.5 146t-60.5 113.5t-94 73.5t-122 26t-122 -26t-94 -73.5t-60.5 -113.5
t-21.5 -146t21.5 -146t60.5 -113.5t94 -73.5t122 -26t122 26t94 73.5t60.5 113.5t21.5 146zM409 765l-87 146l-63 1l108 -147h42z" />
    <glyph glyph-name="Oacute" unicode="&#xd3;" horiz-adv-x="699" 
d="M573 349q0 -67 -15.5 -122.5t-44.5 -95.5t-70 -62t-92 -22t-92 22t-70 62t-44.5 95.5t-15.5 122.5t15.5 122.5t44.5 95.5t70 62t92 22t92 -22t70 -62t44.5 -95.5t15.5 -122.5zM649 349q0 80 -21.5 146t-60.5 113.5t-94 73.5t-122 26t-122 -26t-94 -73.5t-60.5 -113.5
t-21.5 -146t21.5 -146t60.5 -113.5t94 -73.5t122 -26t122 26t94 73.5t60.5 113.5t21.5 146zM295 765h41l109 147l-64 -1z" />
    <glyph glyph-name="Ocircumflex" unicode="&#xd4;" horiz-adv-x="699" 
d="M573 349q0 -67 -15.5 -122.5t-44.5 -95.5t-70 -62t-92 -22t-92 22t-70 62t-44.5 95.5t-15.5 122.5t15.5 122.5t44.5 95.5t70 62t92 22t92 -22t70 -62t44.5 -95.5t15.5 -122.5zM649 349q0 80 -21.5 146t-60.5 113.5t-94 73.5t-122 26t-122 -26t-94 -73.5t-60.5 -113.5
t-21.5 -146t21.5 -146t60.5 -113.5t94 -73.5t122 -26t122 26t94 73.5t60.5 113.5t21.5 146zM222 767h50l79 103l79 -103h50l-98 142h-62z" />
    <glyph glyph-name="Otilde" unicode="&#xd5;" horiz-adv-x="699" 
d="M573 349q0 -67 -15.5 -122.5t-44.5 -95.5t-70 -62t-92 -22t-92 22t-70 62t-44.5 95.5t-15.5 122.5t15.5 122.5t44.5 95.5t70 62t92 22t92 -22t70 -62t44.5 -95.5t15.5 -122.5zM649 349q0 80 -21.5 146t-60.5 113.5t-94 73.5t-122 26t-122 -26t-94 -73.5t-60.5 -113.5
t-21.5 -146t21.5 -146t60.5 -113.5t94 -73.5t122 -26t122 26t94 73.5t60.5 113.5t21.5 146zM498 882h-29q-7 -27 -19 -38t-28 -11q-22 0 -64 23q-21 11 -38.5 17.5t-31.5 6.5q-31 0 -51.5 -24t-27.5 -69h29q7 27 19 38t28 11q11 0 26.5 -6.5t36.5 -17.5q42 -23 71 -23
q31 0 51.5 24t27.5 69z" />
    <glyph glyph-name="Odieresis" unicode="&#xd6;" horiz-adv-x="699" 
d="M573 349q0 -67 -15.5 -122.5t-44.5 -95.5t-70 -62t-92 -22t-92 22t-70 62t-44.5 95.5t-15.5 122.5t15.5 122.5t44.5 95.5t70 62t92 22t92 -22t70 -62t44.5 -95.5t15.5 -122.5zM649 349q0 80 -21.5 146t-60.5 113.5t-94 73.5t-122 26t-122 -26t-94 -73.5t-60.5 -113.5
t-21.5 -146t21.5 -146t60.5 -113.5t94 -73.5t122 -26t122 26t94 73.5t60.5 113.5t21.5 146zM219 822v-76h76v76h-76zM401 822v-76h76v76h-76z" />
    <glyph glyph-name="multiply" unicode="&#xd7;" horiz-adv-x="664" 
d="M294 339l-209 -209l38 -38l209 209l209 -209l38 38l-209 209l209 209l-38 38l-209 -209l-209 209l-38 -38z" />
    <glyph glyph-name="Oslash" unicode="&#xd8;" horiz-adv-x="699" 
d="M525 550q49 -76 49 -201q0 -67 -15.5 -122.5t-44.5 -95.5t-70 -62t-92 -22q-93 0 -148 67zM179 148q-49 76 -49 201q0 67 15.5 122.5t44.5 95.5t70 62t92 22q93 0 148 -67zM595 713l-55 -75q-70 70 -188 70q-67 0 -122 -26t-94 -73.5t-60.5 -113.5t-21.5 -146
q0 -160 82 -260l-58 -78l30 -27l56 76q70 -70 188 -70q67 0 122 26t94 73.5t60.5 113.5t21.5 146q0 161 -82 259l57 78z" />
    <glyph glyph-name="Ugrave" unicode="&#xd9;" horiz-adv-x="622" 
d="M464 231q0 -88 -38.5 -134.5t-113.5 -46.5q-73 0 -111 46.5t-38 131.5v413h97v56h-256v-56h88v-421q0 -53 15 -95.5t43.5 -72.5t68.5 -46t90 -16q106 0 163.5 63t57.5 178v410h88v56h-251v-56h97v-410zM372 765l-87 146l-63 1l108 -147h42z" />
    <glyph glyph-name="Uacute" unicode="&#xda;" horiz-adv-x="622" 
d="M464 231q0 -88 -38.5 -134.5t-113.5 -46.5q-73 0 -111 46.5t-38 131.5v413h97v56h-256v-56h88v-421q0 -53 15 -95.5t43.5 -72.5t68.5 -46t90 -16q106 0 163.5 63t57.5 178v410h88v56h-251v-56h97v-410zM257 765h41l109 147l-64 -1z" />
    <glyph glyph-name="Ucircumflex" unicode="&#xdb;" horiz-adv-x="622" 
d="M464 231q0 -88 -38.5 -134.5t-113.5 -46.5q-73 0 -111 46.5t-38 131.5v413h97v56h-256v-56h88v-421q0 -53 15 -95.5t43.5 -72.5t68.5 -46t90 -16q106 0 163.5 63t57.5 178v410h88v56h-251v-56h97v-410zM185 767h50l79 103l79 -103h50l-98 142h-62z" />
    <glyph glyph-name="Udieresis" unicode="&#xdc;" horiz-adv-x="622" 
d="M464 231q0 -88 -38.5 -134.5t-113.5 -46.5q-73 0 -111 46.5t-38 131.5v413h97v56h-256v-56h88v-421q0 -53 15 -95.5t43.5 -72.5t68.5 -46t90 -16q106 0 163.5 63t57.5 178v410h88v56h-251v-56h97v-410zM181 822v-76h76v76h-76zM363 822v-76h76v76h-76z" />
    <glyph glyph-name="Yacute" unicode="&#xdd;" horiz-adv-x="577" 
d="M349 641h91l-146 -279l-146 279h94v56h-248v-56h72l187 -342v-243h-103v-56h279v56h-105v243l190 342h69v56h-234v-56zM236 765h41l109 147l-64 -1z" />
    <glyph glyph-name="Thorn" unicode="&#xde;" horiz-adv-x="533" 
d="M115 641v-585h-97v-56h277v56h-109v446h106q78 0 112 -36t34 -115q0 -147 -137 -147h-115v-54h142q85 0 133.5 55t48.5 149q0 99 -50 151t-146 52h-128v84h106v56h-277v-56h100z" />
    <glyph glyph-name="germandbls" unicode="&#xdf;" horiz-adv-x="534" 
d="M162 54v455q0 42 8.5 70.5t23.5 46t36.5 24.5t48.5 7q23 0 43 -6.5t35 -21t23.5 -36t8.5 -51.5q0 -54 -29 -85t-75 -31v-57h-4q66 0 106 -39t40 -126q0 -33 -7.5 -61.5t-22 -49.5t-36 -32.5t-50.5 -11.5l-17 5v-54h-4l23 -3q46 0 80.5 15.5t57 43t33.5 66.5t11 86
q0 79 -37.5 131.5t-112.5 63.5q58 13 85.5 52t27.5 90q0 78 -46.5 121t-133.5 43q-84 0 -133.5 -46t-49.5 -151v-458h-85v-54h214v54h-62z" />
    <glyph glyph-name="agrave" unicode="&#xe0;" horiz-adv-x="478" 
d="M302 182q-8 -30 -20.5 -56.5t-30.5 -45.5t-40 -30t-47 -11q-39 0 -58.5 29t-19.5 71q0 52 29.5 81t93.5 29q29 0 49.5 -6t43.5 -18v-43zM263 567l-87 146l-63 1l108 -147h42zM302 86v-86h145v54h-81v304q0 153 -165 153q-75 0 -116.5 -36.5t-54.5 -99.5l62 -5
q8 40 33.5 66.5t76.5 26.5q49 0 74.5 -26.5t25.5 -86.5v-72q-31 10 -60.5 14t-53.5 4q-85 0 -128 -41t-43 -114q0 -33 9 -60.5t26.5 -47.5t42 -31.5t55.5 -11.5q46 0 86.5 25t65.5 71z" />
    <glyph glyph-name="aacute" unicode="&#xe1;" horiz-adv-x="478" 
d="M302 182q-8 -30 -20.5 -56.5t-30.5 -45.5t-40 -30t-47 -11q-39 0 -58.5 29t-19.5 71q0 52 29.5 81t93.5 29q29 0 49.5 -6t43.5 -18v-43zM150 567h41l109 147l-64 -1zM302 86v-86h145v54h-81v304q0 153 -165 153q-75 0 -116.5 -36.5t-54.5 -99.5l62 -5q8 40 33.5 66.5
t76.5 26.5q49 0 74.5 -26.5t25.5 -86.5v-72q-31 10 -60.5 14t-53.5 4q-85 0 -128 -41t-43 -114q0 -33 9 -60.5t26.5 -47.5t42 -31.5t55.5 -11.5q46 0 86.5 25t65.5 71z" />
    <glyph glyph-name="acircumflex" unicode="&#xe2;" horiz-adv-x="478" 
d="M302 182q-8 -30 -20.5 -56.5t-30.5 -45.5t-40 -30t-47 -11q-39 0 -58.5 29t-19.5 71q0 52 29.5 81t93.5 29q29 0 49.5 -6t43.5 -18v-43zM77 569h50l79 103l79 -103h50l-98 142h-62zM302 86v-86h145v54h-81v304q0 153 -165 153q-75 0 -116.5 -36.5t-54.5 -99.5l62 -5
q8 40 33.5 66.5t76.5 26.5q49 0 74.5 -26.5t25.5 -86.5v-72q-31 10 -60.5 14t-53.5 4q-85 0 -128 -41t-43 -114q0 -33 9 -60.5t26.5 -47.5t42 -31.5t55.5 -11.5q46 0 86.5 25t65.5 71z" />
    <glyph glyph-name="atilde" unicode="&#xe3;" horiz-adv-x="478" 
d="M302 182q-8 -30 -20.5 -56.5t-30.5 -45.5t-40 -30t-47 -11q-39 0 -58.5 29t-19.5 71q0 52 29.5 81t93.5 29q29 0 49.5 -6t43.5 -18v-43zM352 684h-29q-7 -27 -19 -38t-28 -11q-22 0 -64 23q-21 11 -38.5 17.5t-31.5 6.5q-31 0 -51.5 -24t-27.5 -69h29q7 27 19 38t28 11
q11 0 26.5 -6.5t36.5 -17.5q42 -23 71 -23q31 0 51.5 24t27.5 69zM302 86v-86h145v54h-81v304q0 153 -165 153q-75 0 -116.5 -36.5t-54.5 -99.5l62 -5q8 40 33.5 66.5t76.5 26.5q49 0 74.5 -26.5t25.5 -86.5v-72q-31 10 -60.5 14t-53.5 4q-85 0 -128 -41t-43 -114
q0 -33 9 -60.5t26.5 -47.5t42 -31.5t55.5 -11.5q46 0 86.5 25t65.5 71z" />
    <glyph glyph-name="adieresis" unicode="&#xe4;" horiz-adv-x="478" 
d="M302 182q-8 -30 -20.5 -56.5t-30.5 -45.5t-40 -30t-47 -11q-39 0 -58.5 29t-19.5 71q0 52 29.5 81t93.5 29q29 0 49.5 -6t43.5 -18v-43zM71 634v-76h76v76h-76zM253 634v-76h76v76h-76zM302 86v-86h145v54h-81v304q0 153 -165 153q-75 0 -116.5 -36.5t-54.5 -99.5l62 -5
q8 40 33.5 66.5t76.5 26.5q49 0 74.5 -26.5t25.5 -86.5v-72q-31 10 -60.5 14t-53.5 4q-85 0 -128 -41t-43 -114q0 -33 9 -60.5t26.5 -47.5t42 -31.5t55.5 -11.5q46 0 86.5 25t65.5 71z" />
    <glyph glyph-name="aring" unicode="&#xe5;" horiz-adv-x="478" 
d="M302 182q-8 -30 -20.5 -56.5t-30.5 -45.5t-40 -30t-47 -11q-39 0 -58.5 29t-19.5 71q0 52 29.5 81t93.5 29q29 0 49.5 -6t43.5 -18v-43zM207 733q-36 0 -61.5 -25.5t-25.5 -61.5t25.5 -61.5t61.5 -25.5t61.5 25.5t25.5 61.5t-25.5 61.5t-61.5 25.5zM207 701q23 0 39 -16
t16 -39t-16 -39t-39 -16t-39 16t-16 39t16 39t39 16zM302 86v-86h145v54h-81v304q0 153 -165 153q-75 0 -116.5 -36.5t-54.5 -99.5l62 -5q8 40 33.5 66.5t76.5 26.5q49 0 74.5 -26.5t25.5 -86.5v-72q-31 10 -60.5 14t-53.5 4q-85 0 -128 -41t-43 -114q0 -33 9 -60.5
t26.5 -47.5t42 -31.5t55.5 -11.5q46 0 86.5 25t65.5 71z" />
    <glyph glyph-name="ae" unicode="&#xe6;" horiz-adv-x="751" 
d="M333 182q-8 -30 -20.5 -56.5t-29 -45.5t-37.5 -30t-45 -11q-37 0 -55 29t-18 71q0 52 27.5 81t90.5 29q26 0 45 -6t42 -18v-43zM383 410q-13 54 -48.5 77.5t-92.5 23.5q-75 0 -116 -36.5t-54 -99.5l62 -5q8 40 32 66.5t72 26.5t71.5 -26.5t23.5 -86.5v-72
q-30 10 -58.5 14t-50.5 4q-82 0 -123.5 -41t-41.5 -114q0 -33 9.5 -60.5t27.5 -47.5t44 -31.5t59 -11.5t60 10t47.5 26.5t35.5 37t24 41.5q30 -64 74 -89.5t99 -25.5q30 0 57 10.5t49 29.5t38 46.5t24 60.5l-59 10q-5 -20 -16.5 -39t-27.5 -34.5t-35 -25t-40 -9.5
q-65 0 -102 57q-33 52 -36 139h254l66 -1q-2 63 -13.5 114t-33.5 87t-53.5 56t-72.5 20q-57 0 -94.5 -25t-60.5 -76zM392 286q6 71 34 117q36 58 93 58t88.5 -47.5t33.5 -128.5l-20 1h-229z" />
    <glyph glyph-name="ccedilla" unicode="&#xe7;" horiz-adv-x="446" 
d="M364 162q-11 -49 -41.5 -82.5t-75.5 -33.5q-32 0 -57 15t-43 41.5t-27.5 64t-9.5 82.5q0 96 35 151t99 55q48 0 81 -39t33 -106l53 1v186h-53v-65q-18 36 -50 57.5t-78 21.5q-42 0 -77.5 -19.5t-60.5 -55t-39 -84t-14 -105.5q0 -58 14.5 -105.5t41.5 -81t65.5 -52
t86.5 -18.5q67 0 115.5 42.5t60.5 120.5zM139 -200q6 -2 18 -5.5t26 -3.5q58 0 90.5 22.5t32.5 65.5q0 34 -18 53.5t-50 19.5l-14 -3l28 53h-31l-38 -83l2 -7l17 5q22 0 36 -12t14 -31q0 -25 -19 -38t-51 -13q-12 0 -24 4l-12 4z" />
    <glyph glyph-name="egrave" unicode="&#xe8;" 
d="M457 137l-59 10q-6 -20 -19 -39t-30.5 -34.5t-38.5 -25t-44 -9.5q-73 0 -113 57q-38 53 -41 139h289l60 -1q-3 144 -55 210.5t-146 66.5q-47 0 -86 -17.5t-67.5 -51.5t-44.5 -83t-16 -112q0 -59 15 -106.5t42.5 -81t68 -51.5t91.5 -18q33 0 64 10.5t57 29.5t45 46.5
t28 60.5zM113 286q7 70 39 117q40 58 103 58q61 0 97 -47.5t39 -128.5l-16 1h-262zM308 567l-87 146l-63 1l108 -147h42z" />
    <glyph glyph-name="eacute" unicode="&#xe9;" 
d="M457 137l-59 10q-6 -20 -19 -39t-30.5 -34.5t-38.5 -25t-44 -9.5q-73 0 -113 57q-38 53 -41 139h289l60 -1q-3 144 -55 210.5t-146 66.5q-47 0 -86 -17.5t-67.5 -51.5t-44.5 -83t-16 -112q0 -59 15 -106.5t42.5 -81t68 -51.5t91.5 -18q33 0 64 10.5t57 29.5t45 46.5
t28 60.5zM113 286q7 70 39 117q40 58 103 58q61 0 97 -47.5t39 -128.5l-16 1h-262zM193 567h41l109 147l-64 -1z" />
    <glyph glyph-name="ecircumflex" unicode="&#xea;" 
d="M457 137l-59 10q-6 -20 -19 -39t-30.5 -34.5t-38.5 -25t-44 -9.5q-73 0 -113 57q-38 53 -41 139h289l60 -1q-3 144 -55 210.5t-146 66.5q-47 0 -86 -17.5t-67.5 -51.5t-44.5 -83t-16 -112q0 -59 15 -106.5t42.5 -81t68 -51.5t91.5 -18q33 0 64 10.5t57 29.5t45 46.5
t28 60.5zM113 286q7 70 39 117q40 58 103 58q61 0 97 -47.5t39 -128.5l-16 1h-262zM121 569h50l79 103l79 -103h50l-98 142h-62z" />
    <glyph glyph-name="edieresis" unicode="&#xeb;" 
d="M457 137l-59 10q-6 -20 -19 -39t-30.5 -34.5t-38.5 -25t-44 -9.5q-73 0 -113 57q-38 53 -41 139h289l60 -1q-3 144 -55 210.5t-146 66.5q-47 0 -86 -17.5t-67.5 -51.5t-44.5 -83t-16 -112q0 -59 15 -106.5t42.5 -81t68 -51.5t91.5 -18q33 0 64 10.5t57 29.5t45 46.5
t28 60.5zM113 286q7 70 39 117q40 58 103 58q61 0 97 -47.5t39 -128.5l-16 1h-262zM97 624v-76h76v76h-76zM279 624v-76h76v76h-76z" />
    <glyph glyph-name="igrave" unicode="&#xec;" horiz-adv-x="273" 
d="M178 54v443h-149v-52h83v-391h-83v-54h229v54h-80zM197 567l-87 146l-63 1l108 -147h42z" />
    <glyph glyph-name="iacute" unicode="&#xed;" horiz-adv-x="273" 
d="M178 54v443h-149v-52h83v-391h-83v-54h229v54h-80zM82 567h41l109 147l-64 -1z" />
    <glyph glyph-name="icircumflex" unicode="&#xee;" horiz-adv-x="273" 
d="M178 54v443h-149v-52h83v-391h-83v-54h229v54h-80zM29 569h50l79 103l79 -103h50l-98 142h-62z" />
    <glyph glyph-name="idieresis" unicode="&#xef;" horiz-adv-x="273" 
d="M178 54v443h-149v-52h83v-391h-83v-54h229v54h-80zM39 624v-76h76v76h-76zM221 624v-76h76v76h-76z" />
    <glyph glyph-name="eth" unicode="&#xf0;" horiz-adv-x="499" 
d="M460 274q0 169 -84 288q-11 15 -25.5 31.5t-33.5 35.5l103 62l-33 29l-105 -63q-49 39 -139 63l-14 -46q66 -23 102 -48l-104 -63l31 -30l110 67q11 -10 20 -18t15 -15q60 -65 77 -132q-28 32 -63 48t-73 16q-45 0 -82.5 -19.5t-64.5 -54t-42 -81.5t-15 -103
q0 -55 15.5 -101.5t44 -80t67.5 -52t87 -18.5t86 20.5t64.5 58t41 90t14.5 116.5zM249 446q33 0 59 -14.5t44 -40.5t27.5 -62t9.5 -79q0 -45 -10 -83t-28.5 -65.5t-44.5 -43t-57 -15.5q-30 0 -56 15t-44.5 41.5t-29 63t-10.5 79.5q0 45 10 82.5t28 64.5t44 42t58 15z" />
    <glyph glyph-name="ntilde" unicode="&#xf1;" horiz-adv-x="512" 
d="M431 54v313q0 69 -30.5 106.5t-87.5 37.5q-45 0 -83 -21t-64 -72v79h-153v-52h86v-391h-87v-54h233v54h-79v280q18 54 52.5 88t73.5 34q40 0 56 -27.5t16 -85.5v-289h-83v-54h228v54h-78zM405 684h-29q-7 -27 -19 -38t-28 -11q-22 0 -64 23q-21 11 -38.5 17.5t-31.5 6.5
q-31 0 -51.5 -24t-27.5 -69h29q7 27 19 38t28 11q11 0 26.5 -6.5t36.5 -17.5q42 -23 71 -23q31 0 51.5 24t27.5 69z" />
    <glyph glyph-name="ograve" unicode="&#xf2;" 
d="M460 250q0 58 -15 106t-42.5 82.5t-66.5 53.5t-87 19t-86.5 -19t-66 -53.5t-42.5 -82.5t-15 -106q0 -57 15 -105t42.5 -82.5t66 -53.5t86.5 -19t86.5 19t66.5 53.5t43 82.5t15 105zM391 250q0 -93 -37.5 -149.5t-104.5 -56.5q-66 0 -103.5 56.5t-37.5 149.5
q0 94 37.5 150.5t103.5 56.5q67 0 104.5 -56.5t37.5 -150.5zM308 567l-87 146l-63 1l108 -147h42z" />
    <glyph glyph-name="oacute" unicode="&#xf3;" 
d="M460 250q0 58 -15 106t-42.5 82.5t-66.5 53.5t-87 19t-86.5 -19t-66 -53.5t-42.5 -82.5t-15 -106q0 -57 15 -105t42.5 -82.5t66 -53.5t86.5 -19t86.5 19t66.5 53.5t43 82.5t15 105zM391 250q0 -93 -37.5 -149.5t-104.5 -56.5q-66 0 -103.5 56.5t-37.5 149.5
q0 94 37.5 150.5t103.5 56.5q67 0 104.5 -56.5t37.5 -150.5zM193 567h41l109 147l-64 -1z" />
    <glyph glyph-name="ocircumflex" unicode="&#xf4;" 
d="M460 250q0 58 -15 106t-42.5 82.5t-66.5 53.5t-87 19t-86.5 -19t-66 -53.5t-42.5 -82.5t-15 -106q0 -57 15 -105t42.5 -82.5t66 -53.5t86.5 -19t86.5 19t66.5 53.5t43 82.5t15 105zM391 250q0 -93 -37.5 -149.5t-104.5 -56.5q-66 0 -103.5 56.5t-37.5 149.5
q0 94 37.5 150.5t103.5 56.5q67 0 104.5 -56.5t37.5 -150.5zM121 569h50l79 103l79 -103h50l-98 142h-62z" />
    <glyph glyph-name="otilde" unicode="&#xf5;" 
d="M460 250q0 58 -15 106t-42.5 82.5t-66.5 53.5t-87 19t-86.5 -19t-66 -53.5t-42.5 -82.5t-15 -106q0 -57 15 -105t42.5 -82.5t66 -53.5t86.5 -19t86.5 19t66.5 53.5t43 82.5t15 105zM391 250q0 -93 -37.5 -149.5t-104.5 -56.5q-66 0 -103.5 56.5t-37.5 149.5
q0 94 37.5 150.5t103.5 56.5q67 0 104.5 -56.5t37.5 -150.5zM396 684h-29q-7 -27 -19 -38t-28 -11q-22 0 -64 23q-21 11 -38.5 17.5t-31.5 6.5q-31 0 -51.5 -24t-27.5 -69h29q7 27 19 38t28 11q11 0 26.5 -6.5t36.5 -17.5q42 -23 71 -23q31 0 51.5 24t27.5 69z" />
    <glyph glyph-name="odieresis" unicode="&#xf6;" 
d="M460 250q0 58 -15 106t-42.5 82.5t-66.5 53.5t-87 19t-86.5 -19t-66 -53.5t-42.5 -82.5t-15 -106q0 -57 15 -105t42.5 -82.5t66 -53.5t86.5 -19t86.5 19t66.5 53.5t43 82.5t15 105zM391 250q0 -93 -37.5 -149.5t-104.5 -56.5q-66 0 -103.5 56.5t-37.5 149.5
q0 94 37.5 150.5t103.5 56.5q67 0 104.5 -56.5t37.5 -150.5zM117 624v-76h76v76h-76zM299 624v-76h76v76h-76z" />
    <glyph glyph-name="divide" unicode="&#xf7;" horiz-adv-x="598" 
d="M270 598v-98h78v98h-78zM64 313h466v52h-466v-52zM270 179v-98h78v98h-78z" />
    <glyph glyph-name="oslash" unicode="&#xf8;" 
d="M427 534l-50 -70q-49 47 -129 47q-48 0 -86.5 -19t-66 -53.5t-42.5 -82.5t-15 -106q0 -112 54 -184l-51 -71l30 -25l48 67q50 -47 129 -47q48 0 86.5 19t66.5 53.5t43 82.5t15 105q0 114 -55 184l53 74zM364 379q26 -49 26 -129q0 -93 -37.5 -149.5t-104.5 -56.5
q-60 0 -94 42zM132 122q-25 49 -25 128q0 94 37.5 150.5t103.5 56.5q60 0 93 -43z" />
    <glyph glyph-name="ugrave" unicode="&#xf9;" horiz-adv-x="518" 
d="M424 497h-152v-52h85v-266q-9 -29 -22.5 -53t-30.5 -41.5t-36.5 -27.5t-40.5 -10q-37 0 -51.5 27.5t-14.5 84.5v338h-149v-52h82v-301q0 -76 27.5 -113t90.5 -37q46 0 84 22t61 67v-83h149v54h-82v443zM318 567l-87 146l-63 1l108 -147h42z" />
    <glyph glyph-name="uacute" unicode="&#xfa;" horiz-adv-x="518" 
d="M424 497h-152v-52h85v-266q-9 -29 -22.5 -53t-30.5 -41.5t-36.5 -27.5t-40.5 -10q-37 0 -51.5 27.5t-14.5 84.5v338h-149v-52h82v-301q0 -76 27.5 -113t90.5 -37q46 0 84 22t61 67v-83h149v54h-82v443zM204 567h41l109 147l-64 -1z" />
    <glyph glyph-name="ucircumflex" unicode="&#xfb;" horiz-adv-x="518" 
d="M424 497h-152v-52h85v-266q-9 -29 -22.5 -53t-30.5 -41.5t-36.5 -27.5t-40.5 -10q-37 0 -51.5 27.5t-14.5 84.5v338h-149v-52h82v-301q0 -76 27.5 -113t90.5 -37q46 0 84 22t61 67v-83h149v54h-82v443zM131 569h50l79 103l79 -103h50l-98 142h-62z" />
    <glyph glyph-name="udieresis" unicode="&#xfc;" horiz-adv-x="518" 
d="M424 497h-152v-52h85v-266q-9 -29 -22.5 -53t-30.5 -41.5t-36.5 -27.5t-40.5 -10q-37 0 -51.5 27.5t-14.5 84.5v338h-149v-52h82v-301q0 -76 27.5 -113t90.5 -37q46 0 84 22t61 67v-83h149v54h-82v443zM108 624v-76h76v76h-76zM290 624v-76h76v76h-76z" />
    <glyph glyph-name="yacute" unicode="&#xfd;" horiz-adv-x="491" 
d="M282 445h79l-104 -358l-112 358h79v52h-215v-52h64l155 -439l-35 -114q-11 -32 -29 -30l-74 4v-56l88 -3q19 -1 34 10.5t28 51.5l189 576h59v52h-206v-52zM191 567h41l109 147l-64 -1z" />
    <glyph glyph-name="thorn" unicode="&#xfe;" horiz-adv-x="535" 
d="M160 97q28 -60 67.5 -83.5t81.5 -23.5q46 0 82.5 18.5t61.5 53t38.5 83.5t13.5 109q0 57 -13 104.5t-38 81.5t-60 52.5t-79 18.5q-20 0 -41 -5.5t-41 -18.5t-39 -35t-34 -55v300h-152v-52h85v-778h-85v-54h237v54h-85v230zM159 251v5q0 94 39 148.5t103 54.5
q66 0 103 -57.5t37 -151.5q0 -45 -10 -83t-28 -65.5t-44 -43t-57 -15.5q-33 0 -59.5 14.5t-45 41.5t-28.5 65.5t-10 86.5z" />
    <glyph glyph-name="ydieresis" unicode="&#xff;" horiz-adv-x="491" 
d="M282 445h79l-104 -358l-112 358h79v52h-215v-52h64l155 -439l-35 -114q-11 -32 -29 -30l-74 4v-56l88 -3q19 -1 34 10.5t28 51.5l189 576h59v52h-206v-52zM115 624v-76h76v76h-76zM297 624v-76h76v76h-76z" />
    <glyph glyph-name="minus" unicode="&#xe000;" horiz-adv-x="608" 
d="M74 313h466v52h-466v-52z" />
    <glyph glyph-name="notequal" unicode="&#xe001;" horiz-adv-x="608" 
d="M74 218h158l-47 -118h52l47 118h256v52h-235l56 138h179v52h-158l47 118h-52l-47 -118h-256v-52h235l-56 -138h-179v-52z" />
    <glyph glyph-name="infinity" unicode="&#xe002;" horiz-adv-x="642" 
d="M76 264q0 16 6.5 32t18 28.5t28.5 20.5t38 8q45 0 82 -26.5t70 -62.5q-33 -36 -70 -62.5t-82 -26.5q-42 0 -66.5 23.5t-24.5 65.5zM357 229q36 -35 64 -55.5t50.5 -31.5t40.5 -14.5t35 -3.5q27 0 52.5 10.5t45.5 29t32 44.5t12 56t-12 56t-32 44.5t-45.5 29t-52.5 10.5
q-21 0 -40 -4t-40.5 -15t-47.5 -32t-62 -54q-36 33 -62 54t-47.5 32t-40.5 15t-40 4q-27 0 -52.5 -10.5t-45.5 -29t-32 -44.5t-12 -56t12 -56t32 -44.5t45.5 -29t52.5 -10.5q16 0 34.5 3.5t41 14.5t50.5 31.5t64 55.5zM638 264q0 -42 -24.5 -65.5t-66.5 -23.5
q-45 0 -82 26.5t-70 62.5q33 36 70 62.5t82 26.5q21 0 38 -8t28.5 -20.5t18 -28.5t6.5 -32z" />
    <glyph glyph-name="lessequal" unicode="&#xe003;" horiz-adv-x="608" 
d="M62 43v-43h484v43h-484zM126 387l420 204v56l-484 -236v-48l484 -236v56z" />
    <glyph glyph-name="greaterequal" unicode="&#xe004;" horiz-adv-x="608" 
d="M547 43h-484v-43h484v43zM63 183v-56l484 236v48l-484 236v-56l420 -204z" />
    <glyph glyph-name="partialdiff" unicode="&#xe005;" horiz-adv-x="445" 
d="M104 667q26 13 52.5 23t61.5 10q40 0 71 -18.5t52.5 -52.5t32.5 -80.5t11 -103.5q0 -24 -2.5 -52.5t-8.5 -58.5q-21 18 -39.5 31t-36 21.5t-35.5 12t-39 3.5q-41 0 -77 -18t-63 -48.5t-42.5 -72t-15.5 -87.5q0 -48 17 -85t44 -61.5t61 -37.5t67 -13q61 0 107.5 37
t77.5 96t46.5 132.5t15.5 148.5q0 79 -21 144.5t-57 112.5t-84.5 73t-103.5 26q-42 0 -74.5 -10.5t-56.5 -21.5zM366 299q-18 -149 -58 -219.5t-106 -70.5q-24 0 -41 11t-28 30t-16 44t-5 54q0 49 12.5 89t33.5 68t47 43t53 15q40 0 65.5 -19.5t42.5 -44.5z" />
    <glyph glyph-name="summation" unicode="&#xe006;" horiz-adv-x="642" 
d="M617 745h-497l-104 7l347 -454l-349 -398l58 3h503q18 0 38.5 -4t38.5 -7q3 29 7.5 55.5t9.5 53t11.5 54.5t14.5 61h-23q-14 -36 -26 -58t-27 -34t-34.5 -16.5t-47.5 -4.5h-371l294 339l-273 358h263q44 0 70.5 -7.5t42.5 -22t24.5 -36t15.5 -48.5h20z" />
    <glyph glyph-name="product" unicode="&#xe007;" horiz-adv-x="741" 
d="M706 629q0 52 24 75.5t70 23.5v23h-773v-23q46 0 70.5 -23.5t24.5 -75.5v-626q0 -21 -4 -36.5t-14.5 -25t-29.5 -14.5t-49 -5v-23h307v23q-30 1 -48.5 6t-29.5 14.5t-15 24.5t-4 36v693h358v-693q0 -21 -4 -36.5t-15 -25t-29.5 -14.5t-47.5 -5v-23h306v23q-30 0 -48.5 5
t-29.5 14.5t-15 25t-4 36.5v626z" />
    <glyph glyph-name="pi" unicode="&#xe008;" horiz-adv-x="494" 
d="M335 401q-5 -45 -8.5 -80.5t-6 -65t-4 -54.5t-1.5 -49q0 -81 28 -124.5t68 -43.5q24 0 45 11.5t37 33.5t26 52.5t11 69.5h-22q0 -35 -17.5 -55t-41.5 -20q-11 0 -22 5t-21 16t-16 28t-6 41q0 19 0.5 48.5t2 62.5t4 66t5.5 58h126v86h-373q-28 0 -50 -12t-38.5 -32
t-29 -47.5t-21.5 -57.5h17q20 36 41 49.5t46 13.5h47l-29 -229q-3 -22 -16 -42.5t-34 -43.5q-11 -11 -18 -23.5t-7 -27.5q0 -21 16 -37.5t38 -16.5q29 0 44 21t21 48l46 351h113z" />
    <glyph glyph-name="integral" unicode="&#xe009;" horiz-adv-x="247" 
d="M192 399q0 70 -3 135.5t-8 126.5t-7.5 100.5t-2.5 56.5q0 8 4 15t14 7q12 0 23 -12q10 -12 28 -12q24 0 37.5 14.5t13.5 29.5q0 28 -21.5 42t-44.5 14q-35 0 -55.5 -27.5t-31.5 -82.5t-14.5 -136t-3.5 -187q0 -126 1 -199.5t2 -114.5t2 -60t1 -35q0 -60 -7.5 -85
t-18.5 -25q-10 0 -23 16q-14 17 -31 17q-16 0 -30 -13t-14 -31q0 -14 6 -25t15 -18.5t19.5 -12t19.5 -4.5q39 0 64.5 29.5t40 91.5t20 157.5t5.5 227.5z" />
    <glyph glyph-name="Omega" unicode="&#xe00a;" horiz-adv-x="691" 
d="M313 152q-30 9 -56 28t-45 50t-30 73.5t-11 98.5q0 127 58.5 190.5t155.5 63.5q99 0 156.5 -64.5t57.5 -189.5q0 -56 -11.5 -98.5t-31 -73t-45.5 -50t-54 -28.5l-16 -152h295v162h-15q-5 -18 -9 -30t-11 -18.5t-17.5 -9.5t-28.5 -3h-158l2 28q52 12 92.5 38.5t68 63
t42 80t14.5 88.5q0 69 -26.5 122.5t-72 90.5t-105.5 56.5t-127 19.5q-68 0 -128 -20t-105 -57t-71.5 -91t-26.5 -121q0 -52 15.5 -96.5t43.5 -79t68 -58.5t90 -36l2 -28h-158q-17 0 -27.5 2.5t-17.5 9.5t-12 19t-9 30h-15v-162h295z" />
    <glyph glyph-name="radical" unicode="&#xe00b;" horiz-adv-x="494" 
d="M26 417l96 47l243 -502l150 950l-35 5l-127 -798l-197 403l-146 -72z" />
    <glyph glyph-name="approxequal" unicode="&#xe00c;" horiz-adv-x="609" 
d="M465 486q-16 -26 -39.5 -40t-49.5 -14q-17 0 -93 26q-75 26 -104 26q-36 0 -67.5 -18t-60.5 -61l38 -24q22 34 41.5 47t45.5 13q24 0 99 -28q76 -27 104 -27q34 0 69 20.5t54 58.5zM465 296q-16 -26 -39.5 -40t-49.5 -14q-17 0 -93 26q-75 26 -104 26q-36 0 -67.5 -18
t-60.5 -61l38 -24q22 34 41.5 47t45.5 13q24 0 99 -28q76 -27 104 -27q34 0 69 20.5t54 58.5z" />
    <glyph glyph-name="Delta" unicode="&#xe00d;" horiz-adv-x="539" 
d="M384 96v-229h-83v-54h236v54h-86v580h84v53h-151v-98q-24 57 -67 83t-86 26q-45 0 -80.5 -18.5t-60.5 -52.5t-38 -82t-13 -107t13.5 -107t38.5 -82.5t61.5 -53t83.5 -18.5q42 0 81.5 23t66.5 83zM386 250q0 -47 -10 -85t-29 -65t-45 -42t-59 -15q-32 0 -57.5 15.5
t-43.5 43t-28 66t-10 83.5q0 46 10 84.5t28 66t44 42.5t59 15q31 0 57 -14.5t45 -41t29 -64.5t10 -85v-4z" />
    <glyph glyph-name="nonbreakingspace" unicode="&#xe00e;" horiz-adv-x="490" 
 />
    <glyph glyph-name="lozenge" unicode="&#xe00f;" horiz-adv-x="445" 
d="M272 0l194 377l-194 368h-60l-194 -368l194 -377h60zM406 377l-164 -323l-164 323l164 314z" />
    <glyph glyph-name="apple" unicode="&#xe010;" horiz-adv-x="750" 
d="M236 0h130v46l-97 10v312h4l225 -312l-89 -10v-46h254v46l-70 10l-251 312h358v4h-361l245 269l62 10v46h-92v147h-4v-147h-136v-46l83 -10l-221 -269h-7v269l96 10v46h-264v-46l97 -10v-269h-151v-4h151v-312l-96 -10v-46h130v-188h4v188z" />
    <glyph glyph-name="Odoubleacute" unicode="&#xe011;" horiz-adv-x="699" 
d="M573 349q0 -67 -15.5 -122.5t-44.5 -95.5t-70 -62t-92 -22t-92 22t-70 62t-44.5 95.5t-15.5 122.5t15.5 122.5t44.5 95.5t70 62t92 22t92 -22t70 -62t44.5 -95.5t15.5 -122.5zM649 349q0 80 -21.5 146t-60.5 113.5t-94 73.5t-122 26t-122 -26t-94 -73.5t-60.5 -113.5
t-21.5 -146t21.5 -146t60.5 -113.5t94 -73.5t122 -26t122 26t94 73.5t60.5 113.5t21.5 146zM270 765h40l109 147l-63 -1zM373 765h41l109 147l-64 -1z" />
    <glyph glyph-name="odoubleacute" unicode="&#xe012;" 
d="M460 250q0 58 -15 106t-42.5 82.5t-66.5 53.5t-87 19t-86.5 -19t-66 -53.5t-42.5 -82.5t-15 -106q0 -57 15 -105t42.5 -82.5t66 -53.5t86.5 -19t86.5 19t66.5 53.5t43 82.5t15 105zM391 250q0 -93 -37.5 -149.5t-104.5 -56.5q-66 0 -103.5 56.5t-37.5 149.5
q0 94 37.5 150.5t103.5 56.5q67 0 104.5 -56.5t37.5 -150.5zM168 567h40l109 147l-63 -1zM271 567h41l109 147l-64 -1z" />
    <glyph glyph-name="Rhacek" unicode="&#xe013;" horiz-adv-x="571" 
d="M185 327h99q19 -9 36.5 -25.5t34.5 -42.5t33 -64.5t33 -90.5l33 -104h124v56h-81l-26 91q-13 33 -24.5 59t-24.5 49t-28.5 44.5t-36.5 44.5q73 8 110.5 57t37.5 120q0 85 -44 130.5t-125 45.5h-324v-56h102v-585h-102v-56h270v56h-97v271zM185 382v260h134
q114 0 114 -126q0 -134 -133 -134h-115zM144 909l98 -142h62l98 142h-50l-79 -103l-79 103h-50z" />
    <glyph glyph-name="rhacek" unicode="&#xe014;" horiz-adv-x="344" 
d="M176 54v209q0 94 34 139t112 45l14 -2v63h-4q-29 0 -52.5 -5.5t-42.5 -19t-34 -36.5t-27 -59v109h-154v-52h87v-391h-87v-54h252v54h-98zM59 711l98 -142h62l98 142h-50l-79 -103l-79 103h-50z" />
    <glyph glyph-name="Thacek" unicode="&#xe015;" horiz-adv-x="578" 
d="M324 56v581h160v-161h63v221h-519v-221h63v161h162v-581h-102v-56h275v56h-102zM155 909l98 -142h62l98 142h-50l-79 -103l-79 103h-50z" />
    <glyph glyph-name="thacek" unicode="&#xe016;" horiz-adv-x="387" 
d="M138 107v338h110v52h-110v140l-67 -36v-104h-71v-52h71v-336q0 -60 24.5 -88.5t79.5 -28.5q42 0 66.5 24t30.5 64l-32 23q-12 -58 -54 -58q-25 0 -36.5 14.5t-11.5 47.5zM353 697h-40q1 0 1 -48q0 -36 -1 -39q0 -5 13 -9h24q0 -12 -4.5 -32t-11 -38.5t-13.5 -32
t-11 -13.5l29 -18q8 0 17.5 15t18 35t14 41t5.5 35v104h-41z" />
    <glyph glyph-name="Udoubleacute" unicode="&#xe017;" horiz-adv-x="622" 
d="M464 231q0 -88 -38.5 -134.5t-113.5 -46.5q-73 0 -111 46.5t-38 131.5v413h97v56h-256v-56h88v-421q0 -53 15 -95.5t43.5 -72.5t68.5 -46t90 -16q106 0 163.5 63t57.5 178v410h88v56h-251v-56h97v-410zM232 765h40l109 147l-63 -1zM335 765h41l109 147l-64 -1z" />
    <glyph glyph-name="udoubleacute" unicode="&#xe018;" horiz-adv-x="518" 
 />
    <glyph glyph-name="nhacek" unicode="&#xe019;" horiz-adv-x="512" 
d="M431 54v313q0 69 -30.5 106.5t-87.5 37.5q-45 0 -83 -21t-64 -72v79h-153v-52h86v-391h-87v-54h233v54h-79v280q18 54 52.5 88t73.5 34q40 0 56 -27.5t16 -85.5v-289h-83v-54h228v54h-78zM129 711l98 -142h62l98 142h-50l-79 -103l-79 103h-50z" />
    <glyph glyph-name="chacek" unicode="&#xe01a;" horiz-adv-x="446" 
d="M364 162q-11 -49 -41.5 -82.5t-75.5 -33.5q-32 0 -57 15t-43 41.5t-27.5 64t-9.5 82.5q0 96 35 151t99 55q48 0 81 -39t33 -106l53 1v186h-53v-65q-18 36 -50 57.5t-78 21.5q-42 0 -77.5 -19.5t-60.5 -55t-39 -84t-14 -105.5q0 -58 14.5 -105.5t41.5 -81t65.5 -52
t86.5 -18.5q67 0 115.5 42.5t60.5 120.5zM106 711l98 -142h62l98 142h-50l-79 -103l-79 103h-50z" />
    <glyph glyph-name="Dhacek" unicode="&#xe01b;" horiz-adv-x="650" 
d="M534 343q0 -143 -60.5 -215.5t-185.5 -72.5h-103v587h107q121 0 181.5 -77t60.5 -222zM114 641v-585h-98v-56h273q85 0 145.5 25.5t99 72t56 110t17.5 140.5q0 81 -18.5 145.5t-57 109.5t-97.5 69.5t-140 24.5h-279v-56h99zM173 909l98 -142h62l98 142h-50l-79 -103
l-79 103h-50z" />
    <glyph glyph-name="dhacek" unicode="&#xe01c;" horiz-adv-x="627" 
d="M377 101v-101h151v54h-85v643h-156v-52h89v-239q-29 59 -70.5 82t-81.5 23q-45 0 -81 -18.5t-60.5 -53t-38 -82.5t-13.5 -107q0 -57 13.5 -104t39 -80.5t61.5 -52.5t81 -19t86.5 25t64.5 82zM601 697h-40q1 0 1 -48q0 -36 -1 -39q0 -5 13 -9h24q0 -12 -4.5 -32t-11 -38.5
t-13.5 -32t-11 -13.5l29 -18q8 0 17.5 15t18 35t14 41t5.5 35v104h-41zM377 248q0 -45 -9.5 -82.5t-27.5 -64.5t-43.5 -41.5t-57.5 -14.5t-58 15.5t-45 43t-29 66t-10 83.5t10.5 82.5t29 65t44.5 43t56 15.5q31 0 57 -15t44.5 -42.5t28.5 -66.5t10 -87z" />
    <glyph glyph-name="dbar" unicode="&#xe01d;" horiz-adv-x="527" 
d="M247 594v-41h138v-147q-29 59 -70.5 82t-81.5 23q-45 0 -81 -18.5t-60.5 -53t-38 -82.5t-13.5 -107q0 -57 13.5 -104t39 -80.5t61.5 -52.5t81 -19t86.5 25t64.5 82v-101h151v54h-85v499h57v41h-57v103h-156v-52h89v-51h-138zM386 249q0 -46 -9.5 -83.5t-27.5 -64.5
t-43.5 -41.5t-57.5 -14.5t-58 15.5t-45 43t-29 66t-10 83.5t10.5 82.5t29 65t44.5 43t56 15.5q31 0 57 -15t44.5 -42.5t28.5 -66t10 -86.5z" />
    <glyph glyph-name="ehacek" unicode="&#xe01e;" 
d="M457 137l-59 10q-6 -20 -19 -39t-30.5 -34.5t-38.5 -25t-44 -9.5q-73 0 -113 57q-38 53 -41 139h289l60 -1q-3 144 -55 210.5t-146 66.5q-47 0 -86 -17.5t-67.5 -51.5t-44.5 -83t-16 -112q0 -59 15 -106.5t42.5 -81t68 -51.5t91.5 -18q33 0 64 10.5t57 29.5t45 46.5
t28 60.5zM113 286q7 70 39 117q40 58 103 58q61 0 97 -47.5t39 -128.5l-16 1h-262zM121 711l98 -142h62l98 142h-50l-79 -103l-79 103h-50z" />
    <glyph glyph-name="lhacek" unicode="&#xe01f;" horiz-adv-x="324" 
d="M-4 645h85v-591h-84v-54h232v54h-82v643h-151v-52zM278 697h-40q1 0 1 -48q0 -36 -1 -39q0 -5 13 -9h24q0 -12 -4.5 -32t-11 -38.5t-13.5 -32t-11 -13.5l29 -18q8 0 17.5 15t18 35t14 41t5.5 35v104h-41z" />
    <glyph glyph-name="Nhacek" unicode="&#xe020;" horiz-adv-x="677" 
d="M512 82l-297 615h-196v-56h97l2 -585h-99v-56h258v56h-100v573l310 -634h86l-2 646h96v56h-254v-56h99v-559zM213 909l98 -142h62l98 142h-50l-79 -103l-79 103h-50z" />
    <glyph glyph-name="Lmiddledot" unicode="&#xe021;" horiz-adv-x="512" 
d="M186 641h106v56h-276v-56h99v-585h-98v-56h475v252h-68v-194h-238v583zM318 400v-76h76v76h-76z" />
    <glyph glyph-name="lmiddledot" unicode="&#xe022;" horiz-adv-x="301" 
d="M-3 645h85v-591h-84v-54h232v54h-82v643h-151v-52zM220 399v-76h76v76h-76z" />
    <glyph glyph-name="Chacek" unicode="&#xe023;" horiz-adv-x="659" 
d="M137 350q0 69 14.5 124t42.5 93.5t68 59.5t91 21q37 0 69.5 -11t57.5 -34.5t41 -58.5t19 -83l62 1v235h-59v-108q-32 60 -85 89.5t-116 29.5q-64 0 -116 -26t-89 -73.5t-57 -113.5t-20 -147q0 -82 19.5 -148.5t56 -113t89.5 -71.5t120 -25q107 0 179 59t92 183l-69 13
q-17 -102 -68.5 -148t-126.5 -46q-51 0 -90.5 21.5t-67.5 60.5t-42.5 94t-14.5 123zM222 909l98 -142h62l98 142h-50l-79 -103l-79 103h-50z" />
    <glyph glyph-name="Ehacek" unicode="&#xe024;" horiz-adv-x="587" 
d="M538 0v195h-63v-140h-292v273h168v-54h46v163h-46v-54h-168v259h293v-134h62v189h-522v-56h96v-585h-95v-56h521zM167 909l98 -142h62l98 142h-50l-79 -103l-79 103h-50z" />
    <glyph glyph-name="Lhacek" unicode="&#xe025;" horiz-adv-x="512" 
d="M186 641h106v56h-276v-56h99v-585h-98v-56h475v252h-68v-194h-238v583zM429 697h-40q1 0 1 -48q0 -36 -1 -39q0 -5 13 -9h24q0 -12 -4.5 -32t-11 -38.5t-13.5 -32t-11 -13.5l29 -18q8 0 17.5 15t18 35t14 41t5.5 35v104h-41z" />
    <glyph glyph-name="periodcentered" unicode="&#xe026;" horiz-adv-x="256" 
d="M91 399v-98h78v98h-78z" />
    <glyph glyph-name="Dbar" unicode="&#xe027;" horiz-adv-x="643" 
d="M174 388v254h107q121 0 181.5 -77t60.5 -222q0 -143 -60.5 -215.5t-185.5 -72.5h-103v286h177v47h-177zM6 388v-47h97v-285h-98v-56h273q85 0 145.5 25.5t99 72t56 110t17.5 140.5q0 81 -18.5 145.5t-57 109.5t-97.5 69.5t-140 24.5h-279v-54l99 1v-256h-97z" />
    <glyph glyph-name="zdot" unicode="&#xe028;" horiz-adv-x="450" 
d="M63 497v-167h56v114h208l-280 -388v-56h357v177h-56v-123h-236l291 389v54h-340zM176 674v-76h76v76h-76z" />
    <glyph glyph-name="Zdot" unicode="&#xe029;" horiz-adv-x="537" 
d="M440 56h-328l380 577v64h-445v-188h63v132h299l-377 -574v-67h470v196h-62v-140zM220 872v-76h76v76h-76z" />
    <glyph glyph-name="zacute" unicode="&#xe02a;" horiz-adv-x="450" 
d="M63 497v-167h56v114h208l-280 -388v-56h357v177h-56v-123h-236l291 389v54h-340zM171 567h41l109 147l-64 -1z" />
    <glyph glyph-name="Zacute" unicode="&#xe02b;" horiz-adv-x="537" 
d="M440 56h-328l380 577v64h-445v-188h63v132h299l-377 -574v-67h470v196h-62v-140zM215 765h41l109 147l-64 -1z" />
    <glyph glyph-name="uogonek" unicode="&#xe02c;" horiz-adv-x="518" 
d="M424 497h-152v-52h85v-266q-9 -29 -22.5 -53t-30.5 -41.5t-36.5 -27.5t-40.5 -10q-37 0 -51.5 27.5t-14.5 84.5v338h-149v-52h82v-301q0 -76 27.5 -113t90.5 -37q46 0 84 22t61 67v-83h149v54h-82v443zM448 6q-19 -13 -32.5 -37.5t-13.5 -55.5q0 -45 26.5 -69.5
t68.5 -24.5q17 0 30 3.5t24 10.5v45q-14 -8 -24 -9q-5 -1 -10.5 -1.5t-11.5 -0.5q-20 0 -36 16t-16 47q0 24 9 43.5t24 32.5h-38z" />
    <glyph glyph-name="Uogonek" unicode="&#xe02d;" horiz-adv-x="622" 
d="M464 231q0 -88 -38.5 -134.5t-113.5 -46.5q-73 0 -111 46.5t-38 131.5v413h97v56h-256v-56h88v-421q0 -53 15 -95.5t43.5 -72.5t68.5 -46t90 -16q106 0 163.5 63t57.5 178v410h88v56h-251v-56h97v-410zM346 6q-19 -13 -32.5 -37.5t-13.5 -55.5q0 -45 26.5 -69.5
t68.5 -24.5q17 0 30 3.5t24 10.5v45q-14 -8 -24 -9q-5 -1 -10.5 -1.5t-11.5 -0.5q-20 0 -36 16t-16 47q0 24 9 43.5t24 32.5h-38z" />
    <glyph glyph-name="uring" unicode="&#xe02e;" horiz-adv-x="518" 
d="M424 497h-152v-52h85v-266q-9 -29 -22.5 -53t-30.5 -41.5t-36.5 -27.5t-40.5 -10q-37 0 -51.5 27.5t-14.5 84.5v338h-149v-52h82v-301q0 -76 27.5 -113t90.5 -37q46 0 84 22t61 67v-83h149v54h-82v443zM261 733q-36 0 -61.5 -25.5t-25.5 -61.5t25.5 -61.5t61.5 -25.5
t61.5 25.5t25.5 61.5t-25.5 61.5t-61.5 25.5zM261 701q23 0 39 -16t16 -39t-16 -39t-39 -16t-39 16t-16 39t16 39t39 16z" />
    <glyph glyph-name="Uring" unicode="&#xe02f;" horiz-adv-x="622" 
d="M464 231q0 -88 -38.5 -134.5t-113.5 -46.5q-73 0 -111 46.5t-38 131.5v413h97v56h-256v-56h88v-421q0 -53 15 -95.5t43.5 -72.5t68.5 -46t90 -16q106 0 163.5 63t57.5 178v410h88v56h-251v-56h97v-410zM314 931q-36 0 -61.5 -25.5t-25.5 -61.5t25.5 -61.5t61.5 -25.5
t61.5 25.5t25.5 61.5t-25.5 61.5t-61.5 25.5zM314 899q23 0 39 -16t16 -39t-16 -39t-39 -16t-39 16t-16 39t16 39t39 16z" />
    <glyph glyph-name="umacron" unicode="&#xe030;" horiz-adv-x="518" 
d="M424 497h-152v-52h85v-266q-9 -29 -22.5 -53t-30.5 -41.5t-36.5 -27.5t-40.5 -10q-37 0 -51.5 27.5t-14.5 84.5v338h-149v-52h82v-301q0 -76 27.5 -113t90.5 -37q46 0 84 22t61 67v-83h149v54h-82v443zM132 656v-37h257v37h-257z" />
    <glyph glyph-name="Umacron" unicode="&#xe031;" horiz-adv-x="622" 
d="M464 231q0 -88 -38.5 -134.5t-113.5 -46.5q-73 0 -111 46.5t-38 131.5v413h97v56h-256v-56h88v-421q0 -53 15 -95.5t43.5 -72.5t68.5 -46t90 -16q106 0 163.5 63t57.5 178v410h88v56h-251v-56h97v-410zM186 854v-37h257v37h-257z" />
    <glyph glyph-name="tcedilla" unicode="&#xe032;" horiz-adv-x="280" 
d="M143 107v338h110v52h-110v140l-67 -36v-104h-71v-52h71v-336q0 -60 24.5 -88.5t79.5 -28.5q42 0 66.5 24t30.5 64l-32 23q-12 -58 -54 -58q-25 0 -36.5 14.5t-11.5 47.5zM94 -200q6 -2 18 -5.5t26 -3.5q58 0 90.5 22.5t32.5 65.5q0 34 -18 53.5t-50 19.5l-14 -3l28 53
h-31l-38 -83l2 -7l17 5q22 0 36 -12t14 -31q0 -25 -19 -38t-51 -13q-12 0 -24 4l-12 4z" />
    <glyph glyph-name="Tcedilla" unicode="&#xe033;" horiz-adv-x="578" 
d="M324 56v581h160v-161h63v221h-519v-221h63v161h162v-581h-102v-56h275v56h-102zM209 -200q6 -2 18 -5.5t26 -3.5q58 0 90.5 22.5t32.5 65.5q0 34 -18 53.5t-50 19.5l-14 -3l28 53h-31l-38 -83l2 -7l17 5q22 0 36 -12t14 -31q0 -25 -19 -38t-51 -13q-12 0 -24 4l-12 4z
" />
    <glyph glyph-name="sacute" unicode="&#xe034;" horiz-adv-x="438" 
d="M393 139q0 30 -6.5 54t-23 42t-46.5 31t-76 21q-36 6 -59 13t-36 17t-18 23.5t-5 32.5q0 36 23.5 61t66.5 25q52 0 82 -33.5t31 -87.5h54v162h-54v-56q-20 35 -51 51t-71 16q-30 0 -56.5 -10t-46 -28t-30.5 -44.5t-11 -59.5q0 -69 36 -99.5t111 -41.5q37 -6 61 -13.5
t37.5 -18t18.5 -25t5 -35.5q0 -43 -29.5 -69.5t-71.5 -26.5q-60 0 -93 35t-37 98h-55v-172h55v71q24 -48 58.5 -65t77.5 -17q72 0 115.5 41t43.5 108zM165 567h41l109 147l-64 -1z" />
    <glyph glyph-name="Sacute" unicode="&#xe035;" horiz-adv-x="501" 
d="M461 186q0 39 -8.5 70t-30.5 55.5t-58.5 44t-91.5 36.5q-33 10 -61.5 22t-49.5 28t-33.5 37.5t-12.5 51.5q0 54 32 87t83 33q67 0 106.5 -43.5t39.5 -112.5v-6l61 -1v209h-61v-69q-24 42 -65 61t-89 19q-40 0 -73 -13t-56.5 -36.5t-36.5 -56.5t-13 -72t10 -68.5
t31.5 -52.5t56.5 -41.5t86 -34.5q42 -14 72 -27.5t49.5 -30t29 -39t9.5 -53.5q0 -60 -35 -97t-92 -37q-34 0 -62.5 13.5t-49.5 37.5t-32.5 56.5t-11.5 70.5v12h-61v-238h61v91q23 -54 67.5 -78t96.5 -24q42 0 77.5 14.5t61 40.5t40 62t14.5 79zM196 765h41l109 147l-64 -1z
" />
    <glyph glyph-name="rcedilla" unicode="&#xe036;" horiz-adv-x="344" 
d="M176 54v209q0 94 34 139t112 45l14 -2v63h-4q-29 0 -52.5 -5.5t-42.5 -19t-34 -36.5t-27 -59v109h-154v-52h87v-391h-87v-54h252v54h-98zM37 -200q6 -2 18 -5.5t26 -3.5q58 0 90.5 22.5t32.5 65.5q0 34 -18 53.5t-50 19.5l-14 -3l28 53h-31l-38 -83l2 -7l17 5
q22 0 36 -12t14 -31q0 -25 -19 -38t-51 -13q-12 0 -24 4l-12 4z" />
    <glyph glyph-name="Rcedilla" unicode="&#xe037;" horiz-adv-x="571" 
d="M185 327h99q19 -9 36.5 -25.5t34.5 -42.5t33 -64.5t33 -90.5l33 -104h124v56h-81l-26 91q-13 33 -24.5 59t-24.5 49t-28.5 44.5t-36.5 44.5q73 8 110.5 57t37.5 120q0 85 -44 130.5t-125 45.5h-324v-56h102v-585h-102v-56h270v56h-97v271zM185 382v260h134
q114 0 114 -126q0 -134 -133 -134h-115zM49 -200q6 -2 18 -5.5t26 -3.5q58 0 90.5 22.5t32.5 65.5q0 34 -18 53.5t-50 19.5l-14 -3l28 53h-31l-38 -83l2 -7l17 5q22 0 36 -12t14 -31q0 -25 -19 -38t-51 -13q-12 0 -24 4l-12 4z" />
    <glyph glyph-name="racute" unicode="&#xe038;" horiz-adv-x="344" 
d="M176 54v209q0 94 34 139t112 45l14 -2v63h-4q-29 0 -52.5 -5.5t-42.5 -19t-34 -36.5t-27 -59v109h-154v-52h87v-391h-87v-54h252v54h-98zM132 567h41l109 147l-64 -1z" />
    <glyph glyph-name="Racute" unicode="&#xe039;" horiz-adv-x="571" 
d="M185 327h99q19 -9 36.5 -25.5t34.5 -42.5t33 -64.5t33 -90.5l33 -104h124v56h-81l-26 91q-13 33 -24.5 59t-24.5 49t-28.5 44.5t-36.5 44.5q73 8 110.5 57t37.5 120q0 85 -44 130.5t-125 45.5h-324v-56h102v-585h-102v-56h270v56h-97v271zM185 382v260h134
q114 0 114 -126q0 -134 -133 -134h-115zM217 765h41l109 147l-64 -1z" />
    <glyph glyph-name="omacron" unicode="&#xe03a;" 
d="M460 250q0 58 -15 106t-42.5 82.5t-66.5 53.5t-87 19t-86.5 -19t-66 -53.5t-42.5 -82.5t-15 -106q0 -57 15 -105t42.5 -82.5t66 -53.5t86.5 -19t86.5 19t66.5 53.5t43 82.5t15 105zM391 250q0 -93 -37.5 -149.5t-104.5 -56.5q-66 0 -103.5 56.5t-37.5 149.5
q0 94 37.5 150.5t103.5 56.5q67 0 104.5 -56.5t37.5 -150.5zM122 656v-37h257v37h-257z" />
    <glyph glyph-name="Omacron" unicode="&#xe03b;" horiz-adv-x="699" 
d="M573 349q0 -67 -15.5 -122.5t-44.5 -95.5t-70 -62t-92 -22t-92 22t-70 62t-44.5 95.5t-15.5 122.5t15.5 122.5t44.5 95.5t70 62t92 22t92 -22t70 -62t44.5 -95.5t15.5 -122.5zM649 349q0 80 -21.5 146t-60.5 113.5t-94 73.5t-122 26t-122 -26t-94 -73.5t-60.5 -113.5
t-21.5 -146t21.5 -146t60.5 -113.5t94 -73.5t122 -26t122 26t94 73.5t60.5 113.5t21.5 146zM223 854v-37h257v37h-257z" />
    <glyph glyph-name="ncedilla" unicode="&#xe03c;" horiz-adv-x="512" 
d="M431 54v313q0 69 -30.5 106.5t-87.5 37.5q-45 0 -83 -21t-64 -72v79h-153v-52h86v-391h-87v-54h233v54h-79v280q18 54 52.5 88t73.5 34q40 0 56 -27.5t16 -85.5v-289h-83v-54h228v54h-78zM23 -200q6 -2 18 -5.5t26 -3.5q58 0 90.5 22.5t32.5 65.5q0 34 -18 53.5t-50 19.5
l-14 -3l28 53h-31l-38 -83l2 -7l17 5q22 0 36 -12t14 -31q0 -25 -19 -38t-51 -13q-12 0 -24 4l-12 4z" />
    <glyph glyph-name="Ncedilla" unicode="&#xe03d;" horiz-adv-x="677" 
d="M512 82l-297 615h-196v-56h97l2 -585h-99v-56h258v56h-100v573l310 -634h86l-2 646h96v56h-254v-56h99v-559zM35 -200q6 -2 18 -5.5t26 -3.5q58 0 90.5 22.5t32.5 65.5q0 34 -18 53.5t-50 19.5l-14 -3l28 53h-31l-38 -83l2 -7l17 5q22 0 36 -12t14 -31q0 -25 -19 -38
t-51 -13q-12 0 -24 4l-12 4z" />
    <glyph glyph-name="nacute" unicode="&#xe03e;" horiz-adv-x="512" 
d="M431 54v313q0 69 -30.5 106.5t-87.5 37.5q-45 0 -83 -21t-64 -72v79h-153v-52h86v-391h-87v-54h233v54h-79v280q18 54 52.5 88t73.5 34q40 0 56 -27.5t16 -85.5v-289h-83v-54h228v54h-78zM202 567h41l109 147l-64 -1z" />
    <glyph glyph-name="Nacute" unicode="&#xe03f;" horiz-adv-x="677" 
d="M512 82l-297 615h-196v-56h97l2 -585h-99v-56h258v56h-100v573l310 -634h86l-2 646h96v56h-254v-56h99v-559zM285 765h41l109 147l-64 -1z" />
    <glyph glyph-name="lcedilla" unicode="&#xe040;" horiz-adv-x="259" 
d="M14 645h85v-591h-84v-54h232v54h-82v643h-151v-52zM52 -200q6 -2 18 -5.5t26 -3.5q58 0 90.5 22.5t32.5 65.5q0 34 -18 53.5t-50 19.5l-14 -3l28 53h-31l-38 -83l2 -7l17 5q22 0 36 -12t14 -31q0 -25 -19 -38t-51 -13q-12 0 -24 4l-12 4z" />
    <glyph glyph-name="Lcedilla" unicode="&#xe041;" horiz-adv-x="512" 
d="M186 641h106v56h-276v-56h99v-585h-98v-56h475v252h-68v-194h-238v583zM163 -200q6 -2 18 -5.5t26 -3.5q58 0 90.5 22.5t32.5 65.5q0 34 -18 53.5t-50 19.5l-14 -3l28 53h-31l-38 -83l2 -7l17 5q22 0 36 -12t14 -31q0 -25 -19 -38t-51 -13q-12 0 -24 4l-12 4z" />
    <glyph glyph-name="lacute" unicode="&#xe042;" horiz-adv-x="259" 
d="M14 645h85v-591h-84v-54h232v54h-82v643h-151v-52zM101 749h41l109 147l-64 -1z" />
    <glyph glyph-name="Lacute" unicode="&#xe043;" horiz-adv-x="512" 
d="M186 641h106v56h-276v-56h99v-585h-98v-56h475v252h-68v-194h-238v583zM97 765h41l109 147l-64 -1z" />
    <glyph glyph-name="kcedilla" unicode="&#xe044;" horiz-adv-x="488" 
d="M18 645h86v-591h-85v-54h232v54h-80v143l50 46l153 -191h-60v-52h185v55h-59l-182 227l168 163h66v52h-216v-52h76l-181 -176v428h-153v-52zM30 -200q6 -2 18 -5.5t26 -3.5q58 0 90.5 22.5t32.5 65.5q0 34 -18 53.5t-50 19.5l-14 -3l28 53h-31l-38 -83l2 -7l17 5
q22 0 36 -12t14 -31q0 -25 -19 -38t-51 -13q-12 0 -24 4l-12 4z" />
    <glyph glyph-name="Kcedilla" unicode="&#xe045;" horiz-adv-x="566" 
d="M563 0v56h-70l-254 316l245 269h62v56h-232v-56h83l-224 -273v0l225 -312h-89v-56h254zM266 0v56h-97v312v273h96v56h-264v-56h97v-585h-96v-56h264zM22 -200q6 -2 18 -5.5t26 -3.5q58 0 90.5 22.5t32.5 65.5q0 34 -18 53.5t-50 19.5l-14 -3l28 53h-31l-38 -83l2 -7l17 5
q22 0 36 -12t14 -31q0 -25 -19 -38t-51 -13q-12 0 -24 4l-12 4z" />
    <glyph glyph-name="iogonek" unicode="&#xe046;" horiz-adv-x="273" 
d="M179 54v443h-149v-52h83v-391h-83v-54h229v54h-80zM97 688v-98h78v98h-78zM160 6q-19 -13 -32.5 -37.5t-13.5 -55.5q0 -45 26.5 -69.5t68.5 -24.5q17 0 30 3.5t24 10.5v45q-14 -8 -24 -9q-5 -1 -10.5 -1.5t-11.5 -0.5q-20 0 -36 16t-16 47q0 24 9 43.5t24 32.5h-38z" />
    <glyph glyph-name="Iogonek" unicode="&#xe047;" horiz-adv-x="287" 
d="M192 56v585h93v56h-257v-56h94v-585h-93v-56h257v56h-94zM172 6q-19 -13 -32.5 -37.5t-13.5 -55.5q0 -45 26.5 -69.5t68.5 -24.5q17 0 30 3.5t24 10.5v45q-14 -8 -24 -9q-5 -1 -10.5 -1.5t-11.5 -0.5q-20 0 -36 16t-16 47q0 24 9 43.5t24 32.5h-38z" />
    <glyph glyph-name="imacron" unicode="&#xe048;" horiz-adv-x="273" 
d="M178 54v443h-149v-52h83v-391h-83v-54h229v54h-80zM29 656v-37h257v37h-257z" />
    <glyph glyph-name="Imacron" unicode="&#xe049;" horiz-adv-x="287" 
d="M192 56v585h93v56h-257v-56h94v-585h-93v-56h257v56h-94zM28 854v-37h257v37h-257z" />
    <glyph glyph-name="gcedilla" unicode="&#xe04a;" horiz-adv-x="539" 
d="M389 98v-84q0 -168 -137 -168q-43 0 -70.5 18.5t-40.5 48.5l-62 -17q35 -104 169 -104q99 0 153 56.5t54 162.5v438h80v48l-152 1v-99q-30 62 -67.5 86.5t-81.5 24.5q-45 0 -81 -19t-62 -53t-40 -81t-14 -104q0 -59 13.5 -106.5t39 -81.5t62 -52.5t82.5 -18.5
q48 0 88 24.5t67 79.5zM389 246q0 -43 -11 -79.5t-30 -63.5t-46 -42t-58 -15q-32 0 -57 15t-43 41.5t-27.5 64t-9.5 82.5t10 82.5t29 64.5t44.5 42t57.5 15q31 0 57 -15.5t44.5 -43.5t29 -65.5t10.5 -82.5zM200 567h41l109 147l-64 -1z" />
    <glyph glyph-name="Gcedilla" unicode="&#xe04b;" horiz-adv-x="709" 
d="M130 345q0 69 14.5 125t42 95.5t67 61.5t89.5 22q37 0 71 -12t61 -35.5t44.5 -59t20.5 -83.5l62 -1v239h-62v-106q-14 27 -35.5 48.5t-47.5 36.5t-56 23.5t-60 8.5q-66 0 -119 -26t-90.5 -73t-57.5 -113t-20 -147t20 -147.5t57 -113.5t90.5 -72.5t121.5 -25.5
q57 0 97 17.5t64 42t38 50t18.5 42t4.5 17.5v-160h61v281l44 -1v51h-259v-55h145q0 -51 -16.5 -92.5t-44 -71t-65 -45.5t-79.5 -16q-51 0 -91.5 21t-69.5 60t-44.5 93.5t-15.5 120.5zM272 -200q6 -2 18 -5.5t26 -3.5q58 0 90.5 22.5t32.5 65.5q0 34 -18 53.5t-50 19.5
l-14 -3l28 53h-31l-38 -83l2 -7l17 5q22 0 36 -12t14 -31q0 -25 -19 -38t-51 -13q-12 0 -24 4l-12 4z" />
    <glyph glyph-name="eogonek" unicode="&#xe04c;" 
d="M457 137l-59 10q-6 -20 -19 -39t-30.5 -34.5t-38.5 -25t-44 -9.5q-73 0 -113 57q-38 53 -41 139h289l60 -1q-3 144 -55 210.5t-146 66.5q-47 0 -86 -17.5t-67.5 -51.5t-44.5 -83t-16 -112q0 -59 15 -106.5t42.5 -81t68 -51.5t91.5 -18q33 0 64 10.5t57 29.5t45 46.5
t28 60.5zM113 286q7 70 39 117q40 58 103 58q61 0 97 -47.5t39 -128.5l-16 1h-262zM278 6q-19 -13 -32.5 -37.5t-13.5 -55.5q0 -45 26.5 -69.5t68.5 -24.5q17 0 30 3.5t24 10.5v45q-14 -8 -24 -9q-5 -1 -10.5 -1.5t-11.5 -0.5q-20 0 -36 16t-16 47q0 24 9 43.5t24 32.5h-38z
" />
    <glyph glyph-name="Eogonek" unicode="&#xe04d;" horiz-adv-x="587" 
d="M538 0v195h-63v-140h-292v273h168v-54h46v163h-46v-54h-168v259h293v-134h62v189h-522v-56h96v-585h-95v-56h521zM431 6q-19 -13 -32.5 -37.5t-13.5 -55.5q0 -45 26.5 -69.5t68.5 -24.5q17 0 30 3.5t24 10.5v45q-14 -8 -24 -9q-5 -1 -10.5 -1.5t-11.5 -0.5q-20 0 -36 16
t-16 47q0 24 9 43.5t24 32.5h-38z" />
    <glyph glyph-name="edot" unicode="&#xe04e;" 
d="M457 137l-59 10q-6 -20 -19 -39t-30.5 -34.5t-38.5 -25t-44 -9.5q-73 0 -113 57q-38 53 -41 139h289l60 -1q-3 144 -55 210.5t-146 66.5q-47 0 -86 -17.5t-67.5 -51.5t-44.5 -83t-16 -112q0 -59 15 -106.5t42.5 -81t68 -51.5t91.5 -18q33 0 64 10.5t57 29.5t45 46.5
t28 60.5zM113 286q7 70 39 117q40 58 103 58q61 0 97 -47.5t39 -128.5l-16 1h-262zM198 674v-76h76v76h-76z" />
    <glyph glyph-name="Edot" unicode="&#xe04f;" horiz-adv-x="587" 
d="M538 0v195h-63v-140h-292v273h168v-54h46v163h-46v-54h-168v259h293v-134h62v189h-522v-56h96v-585h-95v-56h521zM245 872v-76h76v76h-76z" />
    <glyph glyph-name="emacron" unicode="&#xe050;" 
d="M457 137l-59 10q-6 -20 -19 -39t-30.5 -34.5t-38.5 -25t-44 -9.5q-73 0 -113 57q-38 53 -41 139h289l60 -1q-3 144 -55 210.5t-146 66.5q-47 0 -86 -17.5t-67.5 -51.5t-44.5 -83t-16 -112q0 -59 15 -106.5t42.5 -81t68 -51.5t91.5 -18q33 0 64 10.5t57 29.5t45 46.5
t28 60.5zM113 286q7 70 39 117q40 58 103 58q61 0 97 -47.5t39 -128.5l-16 1h-262zM122 656v-37h257v37h-257z" />
    <glyph glyph-name="Emacron" unicode="&#xe051;" horiz-adv-x="587" 
d="M538 0v195h-63v-140h-292v273h168v-54h46v163h-46v-54h-168v259h293v-134h62v189h-522v-56h96v-585h-95v-56h521zM168 854v-37h257v37h-257z" />
    <glyph glyph-name="aogonek" unicode="&#xe052;" horiz-adv-x="478" 
d="M302 182q-8 -30 -20.5 -56.5t-30.5 -45.5t-40 -30t-47 -11q-39 0 -58.5 29t-19.5 71q0 52 29.5 81t93.5 29q29 0 49.5 -6t43.5 -18v-43zM376 6q-19 -13 -32.5 -37.5t-13.5 -55.5q0 -45 26.5 -69.5t68.5 -24.5q17 0 30 3.5t24 10.5v45q-14 -8 -24 -9q-5 -1 -10.5 -1.5
t-11.5 -0.5q-20 0 -36 16t-16 47q0 24 9 43.5t24 32.5h-38zM302 86v-86h145v54h-81v304q0 153 -165 153q-75 0 -116.5 -36.5t-54.5 -99.5l62 -5q8 40 33.5 66.5t76.5 26.5q49 0 74.5 -26.5t25.5 -86.5v-72q-31 10 -60.5 14t-53.5 4q-85 0 -128 -41t-43 -114q0 -33 9 -60.5
t26.5 -47.5t42 -31.5t55.5 -11.5q46 0 86.5 25t65.5 71z" />
    <glyph glyph-name="Aogonek" unicode="&#xe053;" horiz-adv-x="637" 
d="M423 303h-206l105 344zM650 56h-77l-195 583h43v58h-197v-58h43l-195 -583h-80v-56h246v56h-94l56 192h241l56 -192h-92v-56h245v56zM580 6q-19 -13 -32.5 -37.5t-13.5 -55.5q0 -45 26.5 -69.5t68.5 -24.5q17 0 30 3.5t24 10.5v45q-14 -8 -24 -9q-5 -1 -10.5 -1.5
t-11.5 -0.5q-20 0 -36 16t-16 47q0 24 9 43.5t24 32.5h-38z" />
    <glyph glyph-name="abreve" unicode="&#xe054;" horiz-adv-x="478" 
d="M302 182q-8 -30 -20.5 -56.5t-30.5 -45.5t-40 -30t-47 -11q-39 0 -58.5 29t-19.5 71q0 52 29.5 81t93.5 29q29 0 49.5 -6t43.5 -18v-43zM207 573q46 0 81 30.5t47 91.5h-40q-11 -40 -34.5 -58t-53.5 -18t-53.5 18t-34.5 58h-40q12 -61 47 -91.5t81 -30.5zM302 86v-86h145
v54h-81v304q0 153 -165 153q-75 0 -116.5 -36.5t-54.5 -99.5l62 -5q8 40 33.5 66.5t76.5 26.5q49 0 74.5 -26.5t25.5 -86.5v-72q-31 10 -60.5 14t-53.5 4q-85 0 -128 -41t-43 -114q0 -33 9 -60.5t26.5 -47.5t42 -31.5t55.5 -11.5q46 0 86.5 25t65.5 71z" />
    <glyph glyph-name="Abreve" unicode="&#xe055;" horiz-adv-x="637" 
d="M423 303h-206l105 344zM650 56h-77l-195 583h43v58h-197v-58h43l-195 -583h-80v-56h246v56h-94l56 192h241l56 -192h-92v-56h245v56zM320 771q46 0 81 30.5t47 91.5h-40q-11 -40 -34.5 -58t-53.5 -18t-53.5 18t-34.5 58h-40q12 -61 47 -91.5t81 -30.5z" />
    <glyph glyph-name="amacron" unicode="&#xe056;" horiz-adv-x="478" 
d="M302 182q-8 -30 -20.5 -56.5t-30.5 -45.5t-40 -30t-47 -11q-39 0 -58.5 29t-19.5 71q0 52 29.5 81t93.5 29q29 0 49.5 -6t43.5 -18v-43zM78 656v-37h257v37h-257zM302 86v-86h145v54h-81v304q0 153 -165 153q-75 0 -116.5 -36.5t-54.5 -99.5l62 -5q8 40 33.5 66.5
t76.5 26.5q49 0 74.5 -26.5t25.5 -86.5v-72q-31 10 -60.5 14t-53.5 4q-85 0 -128 -41t-43 -114q0 -33 9 -60.5t26.5 -47.5t42 -31.5t55.5 -11.5q46 0 86.5 25t65.5 71z" />
    <glyph glyph-name="Amacron" unicode="&#xe057;" horiz-adv-x="637" 
d="M423 303h-206l105 344zM650 56h-77l-195 583h43v58h-197v-58h43l-195 -583h-80v-56h246v56h-94l56 192h241l56 -192h-92v-56h245v56zM192 854v-37h257v37h-257z" />
    <glyph glyph-name="sfthyphen" unicode="&#xe058;" horiz-adv-x="305" 
d="M37 285v-59h228v59h-228z" />
    <glyph glyph-name="cacute" unicode="&#xe059;" horiz-adv-x="446" 
d="M364 162q-11 -49 -41.5 -82.5t-75.5 -33.5q-32 0 -57 15t-43 41.5t-27.5 64t-9.5 82.5q0 96 35 151t99 55q48 0 81 -39t33 -106l53 1v186h-53v-65q-18 36 -50 57.5t-78 21.5q-42 0 -77.5 -19.5t-60.5 -55t-39 -84t-14 -105.5q0 -58 14.5 -105.5t41.5 -81t65.5 -52
t86.5 -18.5q67 0 115.5 42.5t60.5 120.5zM179 567h41l109 147l-64 -1z" />
    <glyph glyph-name="Cacute" unicode="&#xe05a;" horiz-adv-x="659" 
d="M137 350q0 69 14.5 124t42.5 93.5t68 59.5t91 21q37 0 69.5 -11t57.5 -34.5t41 -58.5t19 -83l62 1v235h-59v-108q-32 60 -85 89.5t-116 29.5q-64 0 -116 -26t-89 -73.5t-57 -113.5t-20 -147q0 -82 19.5 -148.5t56 -113t89.5 -71.5t120 -25q107 0 179 59t92 183l-69 13
q-17 -102 -68.5 -148t-126.5 -46q-51 0 -90.5 21.5t-67.5 60.5t-42.5 94t-14.5 123zM295 765h41l109 147l-64 -1z" />
    <glyph glyph-name="scedilla" unicode="&#xe05b;" horiz-adv-x="438" 
d="M393 139q0 30 -6.5 54t-23 42t-46.5 31t-76 21q-36 6 -59 13t-36 17t-18 23.5t-5 32.5q0 36 23.5 61t66.5 25q52 0 82 -33.5t31 -87.5h54v162h-54v-56q-20 35 -51 51t-71 16q-30 0 -56.5 -10t-46 -28t-30.5 -44.5t-11 -59.5q0 -69 36 -99.5t111 -41.5q37 -6 61 -13.5
t37.5 -18t18.5 -25t5 -35.5q0 -43 -29.5 -69.5t-71.5 -26.5q-60 0 -93 35t-37 98h-55v-172h55v71q24 -48 58.5 -65t77.5 -17q72 0 115.5 41t43.5 108zM141 -200q6 -2 18 -5.5t26 -3.5q58 0 90.5 22.5t32.5 65.5q0 34 -18 53.5t-50 19.5l-14 -3l28 53h-31l-38 -83l2 -7l17 5
q22 0 36 -12t14 -31q0 -25 -19 -38t-51 -13q-12 0 -24 4l-12 4z" />
    <glyph glyph-name="Scedilla" unicode="&#xe05c;" horiz-adv-x="501" 
d="M461 186q0 39 -8.5 70t-30.5 55.5t-58.5 44t-91.5 36.5q-33 10 -61.5 22t-49.5 28t-33.5 37.5t-12.5 51.5q0 54 32 87t83 33q67 0 106.5 -43.5t39.5 -112.5v-6l61 -1v209h-61v-69q-24 42 -65 61t-89 19q-40 0 -73 -13t-56.5 -36.5t-36.5 -56.5t-13 -72t10 -68.5
t31.5 -52.5t56.5 -41.5t86 -34.5q42 -14 72 -27.5t49.5 -30t29 -39t9.5 -53.5q0 -60 -35 -97t-92 -37q-34 0 -62.5 13.5t-49.5 37.5t-32.5 56.5t-11.5 70.5v12h-61v-238h61v91q23 -54 67.5 -78t96.5 -24q42 0 77.5 14.5t61 40.5t40 62t14.5 79zM176 -200q6 -2 18 -5.5
t26 -3.5q58 0 90.5 22.5t32.5 65.5q0 34 -18 53.5t-50 19.5l-14 -3l28 53h-31l-38 -83l2 -7l17 5q22 0 36 -12t14 -31q0 -25 -19 -38t-51 -13q-12 0 -24 4l-12 4z" />
    <glyph glyph-name="Idotaccent" unicode="&#xe05d;" horiz-adv-x="287" 
d="M192 56v585h93v56h-257v-56h94v-585h-93v-56h257v56h-94zM95 872v-76h76v76h-76z" />
    <glyph glyph-name="gbreve" unicode="&#xe05e;" horiz-adv-x="539" 
d="M389 98v-84q0 -168 -137 -168q-43 0 -70.5 18.5t-40.5 48.5l-62 -17q35 -104 169 -104q99 0 153 56.5t54 162.5v438h80v48l-152 1v-99q-30 62 -67.5 86.5t-81.5 24.5q-45 0 -81 -19t-62 -53t-40 -81t-14 -104q0 -59 13.5 -106.5t39 -81.5t62 -52.5t82.5 -18.5
q48 0 88 24.5t67 79.5zM389 246q0 -43 -11 -79.5t-30 -63.5t-46 -42t-58 -15q-32 0 -57 15t-43 41.5t-27.5 64t-9.5 82.5t10 82.5t29 64.5t44.5 42t57.5 15q31 0 57 -15.5t44.5 -43.5t29 -65.5t10.5 -82.5zM257 573q46 0 81 30.5t47 91.5h-40q-11 -40 -34.5 -58t-53.5 -18
t-53.5 18t-34.5 58h-40q12 -61 47 -91.5t81 -30.5z" />
    <glyph glyph-name="Gbreve" unicode="&#xe05f;" horiz-adv-x="709" 
d="M130 345q0 69 14.5 125t42 95.5t67 61.5t89.5 22q37 0 71 -12t61 -35.5t44.5 -59t20.5 -83.5l62 -1v239h-62v-106q-14 27 -35.5 48.5t-47.5 36.5t-56 23.5t-60 8.5q-66 0 -119 -26t-90.5 -73t-57.5 -113t-20 -147t20 -147.5t57 -113.5t90.5 -72.5t121.5 -25.5
q57 0 97 17.5t64 42t38 50t18.5 42t4.5 17.5v-160h61v281l44 -1v51h-259v-55h145q0 -51 -16.5 -92.5t-44 -71t-65 -45.5t-79.5 -16q-51 0 -91.5 21t-69.5 60t-44.5 93.5t-15.5 120.5zM356 771q46 0 81 30.5t47 91.5h-40q-11 -40 -34.5 -58t-53.5 -18t-53.5 18t-34.5 58h-40
q12 -61 47 -91.5t81 -30.5z" />
    <glyph glyph-name="franc" unicode="&#xe060;" horiz-adv-x="522" 
d="M45 200v-55h61v-89h-95v-56h272v56h-106v89h61v55h-61v122h159v-55h36v161h-36l-1 -51h-158v265h269v-136h62v191h-498v-56h96v-441h-61z" />
    </font>
</defs>
</svg>
